<?xml version="1.0" encoding="utf-8"?>
<!-- Generator: Adobe Illustrator 15.0.0, SVG Export Plug-In . SVG Version: 6.00 Build 0)  -->
<!DOCTYPE svg PUBLIC "-//W3C//DTD SVG 1.1//EN" "http://www.w3.org/Graphics/SVG/1.1/DTD/svg11.dtd">
<svg version="1.1" id="Calque_1" xmlns="http://www.w3.org/2000/svg" xmlns:xlink="http://www.w3.org/1999/xlink" x="0px" y="0px"
	 width="267.08px" height="124.348px" viewBox="0 0 267.08 124.348" enable-background="new 0 0 267.08 124.348"
	 xml:space="preserve">
<g>
	<ellipse opacity="0.1" enable-background="new    " cx="116.061" cy="117.666" rx="62.446" ry="2.386"/>
	<g>
		<polygon fill="#7C695B" points="119.222,89.87 112.648,117.67 113.64,117.67 121.828,90.311 		"/>
		<polygon fill="#3F362D" points="126.18,90.026 127.859,117.67 128.717,117.67 128.717,90.206 		"/>
		<polygon fill="#3F362D" points="141.425,89.913 148.056,117.67 147.024,117.67 138.819,90.374 		"/>
		<polygon fill="#7C695B" points="136.09,89.788 139.315,117.67 138.324,117.67 133.487,90.044 		"/>
		<path fill="#425284" d="M112.018,86.924c0.039-0.055,0.086-0.11,0.14-0.166c0.783-0.792,2.081-0.702,3.065-1
			c3.417-1.028,6.732-3.477,8.545-6.777c1.043-1.9,1.595-4.106,1.782-6.296c1.118-13.186,10.391-20.706,20.702-17.679
			c10.513,3.087,7.692,32.658-6.714,35.806c-5.277,1.151-10.708,1.665-16.082,1.231c-3.504-0.283-7.549-0.804-10.531-2.997
			C112.262,88.56,111.468,87.697,112.018,86.924z"/>
	</g>
	<g>
		<g>
			<path fill="#BDBFC1" d="M125.752,48.01c0,0,2.181,2.313,1.35,7.644c-0.829,5.331-1.802,10.745-2.759,11.23
				c-2.011,1.023-12.562-0.2-12.562-0.2s-1.5-2.35,0.256-4.175h8.562C120.6,62.509,122.113,49.776,125.752,48.01z"/>
			<path fill="#FAA284" d="M112.041,63.12c0,0,0.399,0.537,0.395,1.654c-0.002,0.813-0.222,1.599-0.41,1.671
				c0,0-1.208,0.293-2.904,0.212c-1.695-0.081-1.702-0.163-2.213,0.018c-0.512,0.183-0.875,1.002-1.479,1.197
				c-1.133,0.364-2.506-0.765-2.506-0.765s1.31-1.622,3.083-2.627C107.777,63.474,112.041,63.12,112.041,63.12z"/>
		</g>
		<g>
			<path fill="#353B42" d="M121.217,108.473c0,0-2.547,9.196-1.611,9.338h5.088c0,0,0.759,0.256-0.066-9.152l-1.853-0.222
				L121.217,108.473z"/>
			<path fill="#FAA284" d="M121.217,108.414l-0.849,6.962c0.442,0.095,2.792-0.367,3.67,0.281c0,0,0.537-3.19,0.59-7.237
				l-1.572-2.104L121.217,108.414z"/>
		</g>
		<g>
			<path fill="#353B42" d="M115.593,108.274c-1.159,3.316-4.152,6.962-4.152,6.962l-2.606,0.297l-2.611,0.64
				c0,0-0.653,0.656-0.082,1.639h6.634l2.27-5.652l-0.155,5.652h0.693l1.415-7.009C117,110.804,116.856,109.135,115.593,108.274z"/>
			<path fill="#FAA284" d="M115.593,108.264l-1.667-1.516l-1.876,1.514c0,0-2.021,6.429-3.215,7.271l2.383-0.017
				C111.218,115.517,114.435,111.583,115.593,108.264z"/>
		</g>
		<g>
			<path fill="#353B42" d="M106.387,81.815c1.805-3.123,6.958-4.263,18.561-5.781l0.79-3.584c5.202,1.29,7.559,13.665,0.775,14.749
				c-4.046,0.646-9.489-0.463-12.746-0.402c1.191,3.437,2.177,12.769,2.528,21.47h-4.763
				C111.532,108.266,104.34,84.552,106.387,81.815z"/>
			<path fill="#3F464F" d="M116.014,83.857c0.085-0.027-1.078-4.795,12.583-5.848c-1.398-1.274-2.149-3.533-2.859-5.543l0.716-3.376
				l12.295,0.162c0,0,1.002,1.35,3.136,8.6c0.06,0.104,0.093,0.221,0.104,0.353c0,0,2.472,10.645-8.648,10.229
				c-3.021,0.101-6.96-1.061-9.327-0.994c0.705,3.969,1,8.352,1.14,21.141l-4.449-0.015
				C120.704,108.563,115.31,85.893,116.014,83.857z"/>
			<path fill="#353B42" d="M128.597,78.01l5.033-1.241c0,0-5.381,1.054-7.031-0.969C126.6,75.8,126.574,77.893,128.597,78.01z"/>
		</g>
		<g>
			<path fill="#E8EBEF" d="M137.192,47.071c0,0-2.533-0.569-3.938-0.585c-1.402-0.017-3.541,0.501-3.541,0.501
				c-2.675,0.425-3.963,1.005-3.963,1.005l-0.558,3.871c-2.201,2.816-2.322,3.745-2.322,4.992c0,2.157,1.91,3.76,1.91,3.76
				l1.673,8.474c7.319,2.844,12.26,0.162,12.26,0.162c0.813-5.528,2.915-12.617,2.915-12.617v-8.217
				C140.506,47.904,138.335,47.4,137.192,47.071z"/>
			<path opacity="0.1" enable-background="new    " d="M141.63,52.294l-3.17,1.012l-4.391,8.469l-8.936,0.642l1.271,6.431
				c2.854,0.219,8.716,0.524,12.417-0.291c0.878-5.409,2.81-11.92,2.81-11.92L141.63,52.294L141.63,52.294z"/>
			<path fill="#B8BBBF" d="M130.282,51.738l2.129-1.989l1.113,2.457c0,0,3.429-2.002,3.683-5.137
				c-0.151-0.035-2.583-0.569-3.94-0.583c-1.405-0.017-3.547,0.502-3.547,0.502c-0.027,0.007-0.053,0.013-0.078,0.021
				C129.547,47.924,129.475,49.897,130.282,51.738z"/>
			<g>
				<path fill="#FAA284" d="M131.392,45.362l-0.015,3.474l4.25,0.018l0.019-4.521C133.878,45.489,132.115,45.456,131.392,45.362z"/>
				<path fill="#EF8D72" d="M135.646,44.333l0.013-3.48l-4.25-0.018l-0.017,4.527C132.115,45.456,133.878,45.489,135.646,44.333z"/>
			</g>
			<path fill="#E8EBEF" d="M131.392,45.362c0,0-0.09,2.186,1.308,2.991c0,0,2.744-0.749,2.941-2.991l1.574,1.709
				c0,0-0.996,2.924-3.559,4.117l-1.045-2.345l-2.154,2.129c0,0-0.873-2.485-0.728-4.118L131.392,45.362z"/>
			<path opacity="0.1" enable-background="new    " d="M123.56,58.193c0,0,0.556,0.469,1.763,0.574
				c2.439,0.211,6.439,0.649,9.965,0.082c1.48-0.237,2.566-0.984,3.682-1.857c0,0-0.664,3.792-5.3,3.715
				C129.034,60.631,123.85,61.201,123.56,58.193z"/>
		</g>
		<g>
			<path fill="#72382A" d="M127.189,35.012c0,0-3.609,2.047-1.177,5.19C126.012,40.203,125.325,37.096,127.189,35.012z"/>
			<path fill="#5B2A21" d="M136.979,23.952c0,0,2.711-5.062,7.016-1.253c0,0,3.363,2.582,2.082,4.374
				c-1.279,1.792,3.352,3.875,0.012,7.711c-3.341,3.836,3.834,4.78-1.521,9.445c0,0-1.528,1.519-0.185,3.487
				c0,0-5.454-0.764-4.86-5.308c0,0-0.854,1.676-0.109,3.434c0,0-2.918-2.786-1.932-5.336c0.988-2.549,0.969-4.965,0.049-5.981
				C136.615,33.507,134.452,28.841,136.979,23.952z"/>
			<path fill="#E0B155" d="M135.838,23.861c0,0,1.067-1.541,2.989-0.124c1.923,1.417,0.535,2.432,0.535,2.432L135.838,23.861z"/>
			<path fill="#72382A" d="M126.769,35.152l-0.318-1.126c0,0-0.853-0.066-1.38,0.039c0,0-2.999-7.37,3.789-8.672
				c0,0,3.934-3.528,9.22-0.908c0,0,6.134,2.408,3.188,10.125l-4.166,3.63L126.769,35.152z"/>
			<path fill="#89493D" d="M139.819,29.725c-7.004,1.236-11.541-2.181-13.067-3.588c-1.863,1.068-2.352,2.876-2.341,4.495
				C133.208,33.204,139.819,29.725,139.819,29.725z"/>
			<path fill="#FAA284" d="M139.883,34.565l-0.112,0.038l0,0c0,0-2.879,1.777-3.302-5.312c-1.122,1.264-1.141,4.368-1.141,4.368
				c-1.467-0.299-4.485-0.073-4.485-0.073c-0.522-5.053,0.877-6.693,0.877-6.693c-2.56,1.206-1.935,6.677-1.935,6.677
				c-1.111-0.125-1.974,0.232-1.974,0.232l-1.023,0.108c0,0-0.028,3.315,0.096,4.678c0.244,2.667,1.63,4.618,4.246,5.235
				c6.309,1.486,8.086-4.506,8.086-4.506s2.371,0.05,2.646-3.018C142.089,33.793,139.883,34.565,139.883,34.565z"/>
			<path fill="#EF8D72" d="M138.664,38.668c0,0-1.71,4.432-5.246,4.909c-2.152,0.291-4.003-0.627-5.122-1.391
				c0.691,0.788,1.633,1.354,2.836,1.638c6.309,1.486,8.085-4.506,8.085-4.506s1.88,0.024,2.484-2.106
				C140.125,39.399,138.664,38.668,138.664,38.668z"/>
			<g opacity="0.9">
				<circle fill="#EA7460" fill-opacity="0" cx="129.003" cy="38.855" r="2.552"/>
				<circle opacity="0.0909" fill="#EA7460" enable-background="new    " cx="129.003" cy="38.855" r="2.328"/>
			</g>
			<g opacity="0.9">
				<circle fill="#EA7460" fill-opacity="0" cx="135.74" cy="38.752" r="2.947"/>
				<circle opacity="0.0909" fill="#EA7460" enable-background="new    " cx="135.74" cy="38.752" r="2.688"/>
				<circle opacity="0.1818" fill="#EA7460" enable-background="new    " cx="135.74" cy="38.751" r="2.43"/>
				<circle fill="#EA7460" cx="135.74" cy="38.752" r="0.099"/>
			</g>
			<path fill="#72382A" d="M130.132,34.042c0,0-1.231-0.479-2.583,0.491c0,0-0.013-0.167,0.263-0.449
				c0.277-0.283,1.109-0.711,1.974-0.514C129.786,33.57,130.315,33.869,130.132,34.042z"/>
			<path fill="#72382A" d="M133.477,34.144c0,0,1.415-0.592,2.993,0.465c0,0,0.012-0.189-0.313-0.502
				c-0.325-0.313-1.295-0.77-2.289-0.514C133.868,33.594,133.261,33.954,133.477,34.144z"/>
			<g>
				<path fill="#D3755F" d="M132.291,39.267c-1.257,0.565-1.968-0.009-2.043-0.61c-0.049-0.392,0.16-0.75,0.533-0.913
					c0.767-0.333,1.268-1.551,1.273-1.563l0,0c0.014,0.274-0.224,1.318-1.188,1.932c-0.208,0.132-0.336,0.269-0.313,0.462
					C130.594,38.912,131.104,39.398,132.291,39.267L132.291,39.267z"/>
			</g>
			<path fill="#754439" d="M135.131,35.2c0,0-0.786-0.028-0.881-0.327c0,0-0.119,0.41,0.351,0.572
				c-0.16,0.179-0.269,0.438-0.283,0.735c-0.025,0.562,0.295,1.031,0.718,1.053c0.422,0.02,0.786-0.419,0.813-0.98
				C135.873,35.691,135.554,35.219,135.131,35.2z"/>
			<path fill="#754439" d="M129.376,35.168c0,0-0.787-0.027-0.882-0.327c0,0-0.119,0.41,0.351,0.573
				c-0.16,0.178-0.269,0.438-0.283,0.734c-0.027,0.562,0.294,1.032,0.716,1.053c0.422,0.021,0.786-0.418,0.813-0.979
				C130.118,35.66,129.798,35.188,129.376,35.168z"/>
			<path fill="#72382A" d="M139.819,34.376c0,0-2.87,0.934-1.549,5.406C138.271,39.783,134.991,36.016,139.819,34.376z"/>
			<g>
				<path fill="#993434" d="M131.883,41.438c-0.816-0.091-1.476-0.619-1.488-0.629c-0.057-0.047-0.069-0.145-0.031-0.218
					c0.041-0.072,0.121-0.096,0.179-0.048c0.076,0.063,1.903,1.519,3.1-0.326c0.045-0.069,0.125-0.084,0.178-0.03
					c0.053,0.053,0.062,0.15,0.017,0.221C133.247,41.315,132.518,41.509,131.883,41.438z"/>
			</g>
		</g>
		<g>
			<path fill="#E8EBEF" d="M141.653,48.418c0,0,3.837,1.987,0.996,8.979c-2.031,4.998-2.539,8.803-4.645,9.84
				c-3.436,1.693-16.44-0.012-16.44-0.012s-1.517-2.674,0.386-4.367l12.629-0.535C134.58,62.322,139.595,49.346,141.653,48.418z"/>
			<path fill="#FAA284" d="M121.849,63.536c0,0,0.38,0.513,0.373,1.556c-0.005,0.813-0.341,1.553-0.535,1.607
				c0,0-1.272,0.244-2.956,0.022c-1.683-0.22-1.593-0.47-2.117-0.33c-0.525,0.138-1.212,0.661-1.829,0.806
				c-1.159,0.27-2.436-0.968-2.436-0.968s1.441-1.51,3.291-2.364S121.849,63.536,121.849,63.536z"/>
		</g>
	</g>
	<g>
		<g>
			<path fill="#BDBFC1" d="M82.13,67.876h0.733c1.524,0,2.765-1.452,2.765-3.234c0-1.784-1.241-3.236-2.765-3.236H82.13v0.893h0.733
				c1.032,0,1.872,1.053,1.872,2.344c0,1.292-0.839,2.341-1.872,2.341H82.13V67.876z"/>
		</g>
		<rect x="77.312" y="61.069" fill="#E8EBEF" width="5.599" height="7.205"/>
	</g>
	<g>
		<g>
			<rect x="62.758" y="68.274" fill="#A0A0A8" width="107.851" height="3.032"/>
			<rect x="138.31" y="68.274" fill="#7A7A7F" width="32.299" height="3.032"/>
		</g>
		<g>
			<polygon fill="#7A7A7F" points="169.006,117.699 170.608,117.699 162.405,71.306 159.294,71.306 			"/>
			<polygon fill="#57575B" points="162.405,71.211 159.294,71.211 160.616,77.667 163.522,77.667 			"/>
		</g>
		<g>
			<polygon fill="#A0A0A8" points="140.774,117.699 142.376,117.699 134.172,71.306 131.062,71.306 			"/>
			<polygon fill="#7A7A7F" points="131.062,71.211 132.385,77.667 135.291,77.667 134.172,71.211 			"/>
		</g>
		<g>
			<polygon fill="#A0A0A8" points="64.359,117.699 62.758,117.699 70.961,71.306 74.072,71.306 			"/>
			<polygon fill="#7A7A7F" points="70.961,71.211 69.844,77.667 72.749,77.667 74.072,71.211 			"/>
		</g>
		<g>
			<polygon fill="#7A7A7F" points="92.591,117.699 90.99,117.699 99.194,71.306 102.304,71.306 			"/>
			<polygon fill="#57575B" points="99.194,71.211 98.076,77.667 100.982,77.667 102.304,71.211 			"/>
		</g>
	</g>
	<g>
		
			<linearGradient id="SVGID_1_" gradientUnits="userSpaceOnUse" x1="-433.2378" y1="1179.9236" x2="-433.2378" y2="1193.7173" gradientTransform="matrix(1 0 0 -1 539.0098 1245.439)">
			<stop  offset="0" style="stop-color:#C9C9D1"/>
			<stop  offset="1" style="stop-color:#9F9FA5"/>
		</linearGradient>
		<polygon fill="url(#SVGID_1_)" points="96.141,68.336 93.811,52.122 116.322,52.122 117.733,68.327 		"/>
		<polygon fill="#ACACB7" points="116.322,52.122 117.344,52.122 118.477,67.325 128.015,67.38 128.015,68.323 117.69,68.335 		"/>
		
			<ellipse transform="matrix(0.1254 0.9921 -0.9921 0.1254 148.3771 -54.3405)" fill="#FFFFFF" cx="105.009" cy="56.985" rx="2.002" ry="1.453"/>
	</g>
</g>
<g>
	<g>
		<g>
			<g>
				<g>
					<g>
						<g opacity="0.1">
							<g>
								<g>
									<defs>
										<rect id="SVGID_2_" x="183.8" y="115.295" width="67.127" height="5.031"/>
									</defs>
									<clipPath id="SVGID_3_">
										<use xlink:href="#SVGID_2_"  overflow="visible"/>
									</clipPath>
									<path clip-path="url(#SVGID_3_)" fill="#010000" d="M183.8,117.812c0.002,1.391,15.028,2.516,33.566,2.514
										c18.535-0.002,33.563-1.133,33.561-2.52c0-1.393-15.026-2.516-33.563-2.512C198.827,115.295,183.8,116.424,183.8,117.812"
										/>
								</g>
							</g>
						</g>
						<path fill="#E8A074" d="M227.595,53.988c-0.496-0.617-1.008-1.221-1.534-1.812c0.188-0.175,0.379-0.354,0.573-0.546
							l2.666-3.476c0.623,0.421,1.235,0.853,1.854,1.276l-2.89,3.835C228.046,53.522,227.821,53.762,227.595,53.988"/>
						<path fill="#233035" d="M214.015,51.049c0.148-3.489,0.578-7.047,0.979-9.59c0.143-1.249,0.952-1.768,1.816-1.555
							c0.053-0.002,0.154,0.006,0.3,0.039c0.778,0.181,1.114,0.958,1.033,1.656c-0.458,2.677-1.114,7.563-0.955,9.985
							c0.151,2.275,0.323,3.119,2.955,3.412c0.894,0.021,2.864-0.064,5.381-2.733l1.11-1.148c0.748,0.717,1.506,1.429,2.264,2.137
							l-1.063,1.36c-2.629,2.759-5.275,3.655-6.815,3.697C215.4,59.196,213.87,54.488,214.015,51.049"/>
						<path fill="#8D8C8F" d="M204.792,117.668l-6.771-0.068c-0.25-0.02-0.431-0.041-0.504-0.076
							c-2.875-1.242-6.81-6.297-6.714-6.449c0.904-1.418,3.139-2.766,3.139-2.766c1.746,0.768,2.584,2.326,2.584,2.326
							s1.842,3.305,2.096,3.447c0.172,0.1,3.625,0.385,5.371,0.936C205.267,115.42,204.979,117.451,204.792,117.668"/>
						<path fill="#8D8C8F" d="M230.63,117.945c-0.053-0.004-0.084-0.01-0.09-0.021c-0.287-0.521-0.775-3.102-0.775-3.102
							c1.873-0.502,4.438-1.275,4.438-1.275s4.746-1.965,7.688-1.58c1.832,0.236,2.521,2.434,2.472,2.986L230.63,117.945z"/>
						<path fill="#1B1816" d="M234.093,113.48c-0.082-0.5-0.274-1.482-0.561-2.877c-0.281-1.387-0.646-3.154-1.056-5.086
							c-0.816-3.871-1.798-8.41-2.604-11.959c-0.533-2.375-0.984-4.277-1.275-5.334c-0.082-0.287-0.143-0.498-0.236-0.754
							c-0.396-1.045-1.016-2.418-1.783-4.039c-0.769-1.621-1.688-3.473-2.658-5.4c-1.955-3.854-4.146-8.008-5.836-11.129
							c-1.127-2.09-2.021-3.691-2.517-4.519c-0.144-0.231-0.228-0.377-0.388-0.598c-0.047-0.062-0.094-0.128-0.217-0.255
							l-2.068,1.997l-1.301,0.9c0,0,0,0.004,0.004,0.01c0.005,0.006,0.016,0.02,0.025,0.037c0.047,0.068,0.123,0.195,0.219,0.357
							c0.194,0.33,0.469,0.814,0.799,1.406c0.66,1.188,1.553,2.824,2.549,4.688c1.992,3.727,4.404,8.367,6.286,12.186
							c1.245,2.535,2.268,4.74,2.721,5.941c0,0,0,0,0.002,0.008c0.004,0.01,0.013,0.031,0.019,0.057
							c0.017,0.051,0.039,0.125,0.065,0.213c0.052,0.184,0.114,0.432,0.19,0.729c0.15,0.594,0.34,1.383,0.558,2.307
							c0.431,1.852,0.97,4.25,1.522,6.771c1.102,5.047,2.275,10.623,2.838,13.438c0.16,0.799,0.269,1.393,0.304,1.613
							L234.093,113.48z"/>
						<path fill="#1B1816" d="M204.939,116.773l-6.188-0.105c-0.25-0.02-0.429-0.043-0.502-0.072
							c-2.875-1.246-6.771-6.225-6.676-6.377c0.905-1.42,3.102-2.84,3.102-2.84c1.746,0.768,2.584,2.324,2.584,2.324
							s1.84,3.305,2.095,3.447c0.167,0.104,2.266,0.473,4.011,1.027C204.638,114.576,205.126,116.552,204.939,116.773"/>
						<path fill="#2B383D" d="M219.183,64.154c-0.668,3.502-1.203,8.666-1.328,8.674c-2.125,0.133-8.135-4.078-8.135-7.17
							c0-5.163,0.414-8.519,3.037-8.519S220.095,59.364,219.183,64.154"/>
						<path fill="#1B1816" d="M230.339,116.918c-0.055-0.002-0.082-0.01-0.092-0.021c-0.287-0.521-0.773-3.105-0.773-3.105
							c1.873-0.5,4.438-1.271,4.438-1.271s4.488-1.4,7.43-1.023c1.83,0.236,2.778,1.875,2.728,2.428L230.339,116.918z"/>
						<path fill="#1B1816" d="M202.798,105.73c2.172-2.055,4.564-4.371,6.59-6.568c1.352-1.473,2.543-2.879,3.431-4.201
							c0.507-0.764,0.922-1.49,1.202-2.295c1.361-3.971,2.584-9.752,3.553-15.043c0.963-5.287,1.646-10.008,1.852-11.773
							l-4.429-0.512c-0.184,1.592-0.86,6.311-1.808,11.486c-0.939,5.174-2.171,10.887-3.383,14.393
							c-0.106,0.354-0.598,1.211-1.355,2.189c-0.754,0.984-1.765,2.131-2.893,3.328c-2.26,2.4-5.004,4.994-7.313,7.162
							c-1.542,1.449-2.884,2.697-3.807,3.621l3.149,3.148C198.669,109.586,200.63,107.781,202.798,105.73"/>
						<path fill="#E8A074" d="M233.857,48.38c-0.002,0.021,0.412,0.561-0.115,1.098c-1.489,0.6-5.022,1.975-5.714,1.759
							l-0.221-0.288c-0.074-0.413,0.479-3.191,0.793-3.352l5.273-2.017c0.911-0.067-0.248,0.706-0.299,2.153L233.857,48.38z"/>
						<path fill="#E8A074" d="M232.073,47.278c-0.479,0.426-0.668,1.088-0.434,1.476c0.238,0.388,0.814,0.354,1.293-0.075
							l3.723-3.353c0.477-0.426,0.667-1.087,0.432-1.475s-0.813-0.354-1.289,0.07L232.073,47.278z"/>
						<path fill="#E8A074" d="M227.634,47.937c-0.062,1.185,0.016,2.831,0.299,2.606l0.652-0.154
							c0.477-0.022,0.758-0.397,0.816-1.061l3.447-3.188c0.061-0.66-2.613-1.113-2.975-1.158h-0.384
							c-0.472,0.021-1.181,0.385-1.503,1.412L227.634,47.937z"/>
						<path fill="#E8A074" d="M231.059,47.87c-0.496,0.182-0.914,0.674-0.935,1.106c-0.02,0.428,1.141,0.956,1.637,0.775
							l3.125-1.729c0.498-0.179,1.127-0.791,1.146-1.221c0.021-0.43,0.033-1.257-0.465-1.079L231.059,47.87z"/>
						<path fill="#E8A074" d="M230.271,49.264c-0.474,0.078-0.996,0.443-1.147,0.914l0.346-0.258
							c-0.15,0.469-0.346,1.188,0.127,1.111l4.087-1.436c0.483-0.167,1.067-0.62,1.19-1.823l-0.136-0.413
							c0.149-0.467-0.176-0.096-0.646-0.02L230.271,49.264z"/>
						<path fill="#2B383D" d="M223.188,69.189l-15.6,0.553c-0.263-22.275,0.221-32.375,3.269-36.841
							c2.864-3.367,8.073-4.111,8.073-4.111s2.777,8.17,2.203,12.309C219.033,56.207,222.364,65.703,223.188,69.189"/>
						<path fill="#FFFFFF" d="M220.718,45.294c-0.484-1.646-0.985-3.418-1.51-5.229c-0.264-0.899,0.088-1.904-0.188-2.813
							c-0.279-0.921-1.184-1.738-1.477-2.645c-0.564-1.729-1.158-3.403-1.791-4.942c1.762-0.671,3.176-0.875,3.176-0.875
							s2.92,7.715,2.347,11.854C221.113,41.823,220.821,44.181,220.718,45.294"/>
						<path fill="#0097D9" d="M220.255,34.871c0.209,1.652,0.539,3.478,0.707,5.143c0.059,0.577,0.114,1.154,0.17,1.731
							c-0.156,1.207-0.338,2.724-0.412,3.549c-0.297-1.004-0.6-2.058-0.907-3.14c-0.024-0.976-0.06-1.95-0.079-2.923
							c-0.029-1.398,0.082-2.878-0.021-4.27C220.022,34.966,219.944,34.885,220.255,34.871"/>
						<g opacity="0.2">
							<g>
								<g>
									<defs>
										<rect id="SVGID_4_" x="217.563" y="32.846" width="3.491" height="3.95"/>
									</defs>
									<clipPath id="SVGID_5_">
										<use xlink:href="#SVGID_4_"  overflow="visible"/>
									</clipPath>
									<path clip-path="url(#SVGID_5_)" fill="#233035" d="M218.395,34.34c-0.001-0.007,0.067-0.016,0.142-0.116
										c0.09-0.088,1.323-1.171,1.405-1.268c0.082-0.094,0.024-0.011,0.106-0.109c0.888,2.076,0.783,2.305,1.006,3.589
										c-0.396-0.914-0.782-1.833-1.178-2.747c-0.483,1.017-0.873,2.076-1.324,3.107c-0.348-0.542-0.773-1.068-0.989-1.625
										c0.103-0.107,0.206-0.212,0.313-0.311C218.493,34.315,217.804,34.869,218.395,34.34"/>
								</g>
							</g>
						</g>
						<g opacity="0.2">
							<g>
								<g>
									<defs>
										<rect id="SVGID_6_" x="207.528" y="28.789" width="11.5" height="40.953"/>
									</defs>
									<clipPath id="SVGID_7_">
										<use xlink:href="#SVGID_6_"  overflow="visible"/>
									</clipPath>
									<path clip-path="url(#SVGID_7_)" fill="#233035" d="M210.857,32.901c2.864-3.367,8.073-4.111,8.073-4.111
										s0.037,0.096,0.1,0.273c-0.521,0.342-1.029,0.735-1.552,1.211c-0.96,0.873-1.585,2.1-2.47,3.043
										c-1.135,1.21-2.475,2.293-2.94,4.52c-1.099,5.24-0.765,12.604-0.362,17.93c0.346,4.62,1.038,9.21,1.914,13.763
										l-6.031,0.213C207.326,47.467,207.808,37.368,210.857,32.901"/>
								</g>
							</g>
						</g>
						<path fill="#E8A074" d="M216.606,29.317l3.344-4.857c0.721,0.748,1.438,1.492,2.172,2.211
							c0.266,0.262,0.533,0.525,0.801,0.788l-2.977,5.198C219.946,32.656,217.423,30.462,216.606,29.317"/>
						<path fill="#3E4E55" d="M220.559,48.754c0.104,0.277,0.429-7.53-0.908-11.706c-1.581-4.941-3.953-8.008-3.953-8.008
							l-2.372,1.187c0,0,2.868,7.017,3.36,6.918c0.495-0.097,2.075,0,2.075,0l-0.988,1.382
							C217.772,38.528,219.374,45.594,220.559,48.754"/>
						<polygon fill="#96989C" points="198.156,74.552 216.439,75.689 217.944,61.5 199.193,60.387 						"/>
						<path fill="#BCBBBF" d="M206.946,73.951c-0.334-0.461-5.24-9.908-7.449-13.578l18.447,1.127l-0.029,0.276
							C215.367,64.945,207.913,72.855,206.946,73.951"/>
						<g opacity="0.5">
							<g>
								<g>
									<defs>
										<rect id="SVGID_8_" x="204.241" y="61.024" width="6.357" height="14.324"/>
									</defs>
									<clipPath id="SVGID_9_">
										<use xlink:href="#SVGID_8_"  overflow="visible"/>
									</clipPath>
									<path clip-path="url(#SVGID_9_)" fill="#96989C" d="M209.542,74.802c-0.021,0.182-0.046,0.361-0.07,0.545l-5.23-0.326
										l4.205-13.998l2.152,0.126C209.611,65.629,209.556,70.213,209.542,74.802"/>
								</g>
							</g>
						</g>
						<path fill="#F9C18D" d="M204.858,73.484c-0.018-0.012-0.508,0.043-0.523,0.033c0.822-2.998,1.43-5.078,2.303-5.113
							l0.244,0.131c0.481,0.307,2.09,3.666,2.25,4.363l-1.724,1.402c-0.407,0.691-0.821,0.449-2.032-0.438L204.858,73.484z"/>
						<path fill="#F9C18D" d="M207.869,73.029c-0.017-0.586-0.627-0.762-1.071-0.887c-0.447-0.123-0.795,0.254-0.775,0.844
							l0.21,2.861c0.017,0.59,0.289,0.973,0.735,1.096L207.322,77c0.517-0.08,0.634-0.744,0.618-1.334L207.869,73.029z"/>
						<path fill="#F9C18D" d="M209.101,72.648c-0.246-0.572-1.602-2.369-1.996-2.219c-0.395,0.146-0.227,0.508,0.021,1.084
							l1.387,4.082c0.248,0.57,0.769,0.912,1.16,0.762c0.395-0.148,0.512-0.729,0.26-1.305L209.101,72.648z"/>
						<path fill="#F9C18D" d="M206.765,71.676c0.043-0.564-0.283-1.191-0.729-1.393c-0.446-0.203-0.838,0.092-0.884,0.66
							l-0.325,4.441c-0.044,0.566,0.284,1.188,0.731,1.391c0.443,0.205,0.837-0.09,0.881-0.656L206.765,71.676z"/>
						<path fill="#F9C18D" d="M206.05,71.875c0.139-0.498-0.006-1.176-0.434-1.521l-0.113-1.295
							c-0.427-0.352-1.621,3.746-1.758,4.244l-0.127,1.686c-0.136,0.5,0.094,1.184,0.521,1.531c0.427,0.352,0.883,0.229,1.023-0.271
							L206.05,71.875z"/>
						<polygon fill="#FFFFFF" points="207.899,69.994 204.464,70.365 204.251,67.724 207.775,67.32 						"/>
						<path fill="#2B383D" d="M212.335,35.243l0.867-0.329c0.223,0.006,0.46,0.039,0.696,0.089c0.452,0.157,0.819,0.366,1.125,0.675
							c0.094,0.197,0.172,0.442,0.247,0.757c0.101,0.436,0.162,0.751,0.186,1.132c-0.476,1.789-2.193,4.005-3.601,8.663
							c-0.815,3.285-1.856,6.527-3.24,15.729c-0.216,1.442-0.312,5.168-0.479,6.723c-0.924,0.01-1.159,0.066-2.084,0.098
							c-0.58,0.02-1.153,0.049-1.731,0.086c-0.179-0.016-0.356-0.031-0.535-0.047c0.017-1.523,0.132-4.541,0.341-6.08
							C207.253,39.607,211.792,35.775,212.335,35.243"/>
						<path fill="#F9C18D" d="M233.964,44.904c-0.017,0.475,0.395,0.873,0.916,0.891l1.631,0.059
							c0.522,0.017,0.957-0.352,0.975-0.826c0.016-0.474-0.395-0.874-0.913-0.895l-1.632-0.057
							C234.415,44.058,233.98,44.428,233.964,44.904"/>
						
							<rect x="233.399" y="36.902" transform="matrix(-0.392 -0.92 0.92 -0.392 284.5732 277.9099)" fill="#5A5B62" width="1.437" height="16.039"/>
						<path fill="#F9C18D" d="M231.853,47.862c-0.137,0.454,0.119,0.933,0.578,1.07l1.418,0.426
							c0.457,0.135,0.934-0.122,1.068-0.577c0.137-0.455-0.119-0.935-0.574-1.071l-1.418-0.426
							C232.466,47.15,231.989,47.406,231.853,47.862"/>
						<path fill="#F9C18D" d="M232.61,46.227c-0.135,0.455,0.16,0.943,0.66,1.095l1.563,0.47c0.502,0.148,1.02-0.098,1.154-0.553
							c0.137-0.456-0.158-0.945-0.66-1.096l-1.564-0.468C233.265,45.526,232.749,45.773,232.61,46.227"/>
						<path fill="#0097D9" d="M220.386,35.821c0-0.082,0.353-1.17,0.353-1.17l-0.69-1.853l-1.186,1.159l0.982,1.818L220.386,35.821z
							"/>
						<path fill="#FFFFFF" d="M232.007,25.286c-0.106,0.145-0.258,0.217-0.338,0.157c-0.078-0.054-0.057-0.219,0.051-0.363
							c0.105-0.15,0.254-0.219,0.334-0.167C232.132,24.974,232.112,25.137,232.007,25.286"/>
						<g>
							<g>
								<g>
									<path fill="#B22828" d="M227.693,32.529c0,0-0.201-1.444-1.091-2.323C226.603,30.205,226.192,31.851,227.693,32.529z"/>
									<path fill="#F2F0F2" d="M229.128,31.01c0,0-0.293,0.376-0.47,0.51c0,0-1.396-0.741-2.017-1.855l0.318-0.347L229.128,31.01z
										"/>
									<g>
										<g>
											<path fill="#FAA284" d="M230.181,13.544c9.517,5.635,1.285,13.69,1.232,13.759c-0.15,0.614-0.144,1.676-0.066,2.018
												c0.17,0.756,0.095,0.901,0.095,0.901c-0.545,0.952-1.513,0.697-1.905,0.394c-0.17,0.241-0.342,0.475-0.516,0.697
												c-1.184-0.688-2.09-1.521-2.09-1.521c-0.17,0.313-0.572,1.803,0.811,2.655c0.039,0.023,0.104,0.065,0.169,0.104
												c-1.104,1.021-2.312,1.443-3.733,0.599c-4.604-2.733-6.146-9.432-6.146-9.432c-0.382-2.861,0.768-5.421,0.768-5.421
												S221.603,8.467,230.181,13.544z"/>
										</g>
										
											<ellipse transform="matrix(-0.5093 0.8606 -0.8606 -0.5093 368.7104 -158.0257)" fill="#502F26" cx="229.407" cy="26.103" rx="1.069" ry="0.616"/>
										<g>
											<path fill="#663631" d="M228.925,23.122l0.274-0.577c0.079,0.035,1.56,0.221,2.83,1.224l-0.497,0.867
												C230.561,23.698,228.945,23.133,228.925,23.122z"/>
										</g>
									</g>
								</g>
								<path fill="#562D2A" d="M227.059,21.87c0,0-3.146,5.403-1.623,6.543c1.524,1.143,2.935,0.664,4.101,2.202
									c0,0,0.09,0.419-0.322,0.444c-0.41,0.024-2.117-0.744-2.649-1.376c0,0-0.996,1.909,0.972,3.188c0,0-1.176,1.602-2.472,1.031
									c-1.298-0.571-3.394-2.022-2.754-4.011c0.64-1.99,3.489-7.7,3.489-7.7L227.059,21.87z"/>
							</g>
							<path fill="#663631" d="M234.613,21.742c0,0,5.845-2.037,3.733-5.23c0,0,0.734-0.899,0.021-2.016c0,0-1.31,1.143-2.815-0.119
								c-1.51-1.26-8.6-6.668-13.063-3.194c0,0-5.413,1.361-4.521,11.854c0,0,3.92,1.968,7.328,0.631c0,0,1.25-1.41,2.094-2.075
								c0.847-0.666,2.878-1.718,3.357-3.576C230.746,18.015,231.515,19.907,234.613,21.742z"/>
							<path fill="#562D2A" d="M230.746,18.015c-0.479,1.857-2.511,2.91-3.356,3.576c-0.844,0.666-2.094,2.075-2.094,2.075
								c-3.408,1.336-7.328-0.631-7.328-0.631c-0.154-1.817-0.115-3.358,0.054-4.665C224.212,22.31,230.737,18.022,230.746,18.015z"
								/>
							<g>
								<path fill="#FAA284" d="M225.21,22.124c0,0,0.575,0.536-0.295,2.529c-0.871,1.994-1.427,1.874-1.603,1.855
									c0,0-1.961-0.526-0.896-3.656C223.3,20.251,225.21,22.124,225.21,22.124z"/>
								<path fill="#DB7C65" d="M224.02,25.199c0,0-0.862-1.339,0.46-1.389c0,0,0.51-1.595-0.499-1.763
									c-1.009-0.169-1.13,1.536-1.127,1.904C222.857,24.724,223.513,26.055,224.02,25.199z"/>
							</g>
						</g>
					</g>
				</g>
			</g>
		</g>
	</g>
</g>
<g>
	<path fill="#222322" d="M108.418,36.023l-0.44,0.343c0,0-0.063,0.094-0.268,0.094c-0.204,0-21.665,0-21.665,0
		s-0.284-0.047-0.425-0.219l-0.219-0.309"/>
	<path fill="#222322" d="M85.301,35.205c0,0.027,0.022,0.049,0.049,0.049h23.185c0.028,0,0.05-0.021,0.05-0.049v-0.41
		c0-0.026-0.022-0.049-0.05-0.049H85.35c-0.027,0-0.063,0.022-0.063,0.049L85.301,35.205z"/>
	<path d="M85.774,35.032h22.424c0.543-0.018,0.599-0.7,0.6-0.707l-0.099-0.008c-0.001,0.023-0.05,0.602-0.503,0.616H85.78
		c-0.044-0.007-0.553-0.08-0.567-0.629l-0.099,0.003c0.017,0.648,0.652,0.724,0.658,0.724L85.774,35.032z"/>
	<g>
		<path fill="#4E4E4E" d="M108.591,34.936l0.016,0.724c0,0-0.032,0.393-0.519,0.393c-0.488,0-22.374,0-22.374,0
			s-0.419-0.077-0.419-0.472c0-0.394-0.022-0.943-0.022-0.943c0.063,0.581,0.441,0.581,0.441,0.581s21.838,0,22.326,0
			c0.488,0,0.598-0.408,0.598-0.408"/>
		<path fill="#3C3C3D" d="M85.705,36.101C85.7,36.1,85.246,36.01,85.246,35.58c0-0.388-0.021-0.937-0.021-0.941l0.098-0.008
			c0.057,0.528,0.378,0.538,0.392,0.538h22.326c0.442,0,0.546-0.356,0.551-0.373l0.095,0.026c0,0.002-0.014,0.049-0.05,0.113h0.004
			l0.016,0.726v0.002c0,0.005-0.042,0.44-0.568,0.44h-22.38L85.705,36.101z M108.545,35.061c-0.098,0.105-0.256,0.207-0.504,0.207
			H85.714c-0.003,0-0.232-0.004-0.379-0.255c0.005,0.177,0.01,0.39,0.01,0.567c0,0.331,0.331,0.413,0.374,0.422h22.369
			c0.421,0,0.466-0.313,0.47-0.345L108.545,35.061z"/>
	</g>
	<g>
		<path fill="#A3A2A3" d="M108.729,21.902c0,0-0.203-0.687-0.812-0.687h-0.351h-1.102H87.775h-1.381h-0.35
			c-0.61,0-0.813,0.687-0.813,0.687"/>
		<path fill="#3C3C3D" d="M85.278,21.917c0.002-0.007,0.202-0.65,0.766-0.65h21.873c0.566,0,0.764,0.644,0.766,0.65l0.094-0.028
			c-0.001-0.008-0.221-0.722-0.859-0.722H86.044c-0.639,0-0.858,0.713-0.86,0.722L85.278,21.917z"/>
	</g>
	<g>
		<g>
			<path fill="#444546" stroke="#000000" stroke-width="2.8347" stroke-miterlimit="10" d="M108.863,34.333"/>
			<g>
				<path fill="#4E4E4E" d="M108.821,34.159c0,0.862-0.477,0.807-0.477,0.807s-21.974,0-22.58,0c-0.605,0-0.615-0.587-0.615-0.587
					s0-11.436,0-12.151c0-0.669,0.652-0.611,0.652-0.611h20.17c0,0,1.665,0,2.267,0c0.603,0,0.546,0.646,0.546,0.646L108.821,34.159
					z"/>
				<path fill="#222322" d="M108.341,35.016H85.764c-0.646,0-0.664-0.629-0.664-0.638V22.227c0-0.488,0.342-0.661,0.662-0.661
					c0.021,0,0.036,0,0.041,0.001h22.435c0.185,0,0.33,0.056,0.434,0.169c0.182,0.198,0.165,0.497,0.162,0.529l0.036,11.895
					c0,0.816-0.424,0.857-0.51,0.857C108.351,35.016,108.345,35.016,108.341,35.016z M108.238,21.665H85.801h-0.004
					c-0.002,0-0.014-0.001-0.035-0.001c-0.17,0-0.563,0.055-0.563,0.563v12.15c0,0.022,0.016,0.539,0.565,0.539h22.58l0.005,0.001
					c0.012,0.001,0.423,0.032,0.423-0.759l-0.036-11.896v-0.006c0-0.002,0.022-0.282-0.137-0.456
					C108.515,21.711,108.395,21.665,108.238,21.665L108.238,21.665z"/>
			</g>
			<g>
				<path fill="#5B595A" d="M108.408,22.393v11.985c0,0,0.01,0.248-0.284,0.248c-0.293,0-22.375,0-22.375,0s-0.205,0-0.205-0.395
					c0-0.33,0-12.005,0-12.005s0.055-0.229,0.331-0.229c0.275,0,22.285,0,22.285,0S108.408,22.006,108.408,22.393z"/>
				<path fill="#222322" d="M85.495,34.232V22.228l0.001-0.013c0.022-0.092,0.13-0.267,0.378-0.267h22.287
					c0.003,0,0.295,0.015,0.295,0.444v11.984c0,0.004,0.003,0.119-0.08,0.206c-0.059,0.062-0.144,0.092-0.253,0.092H85.749
					C85.738,34.676,85.495,34.671,85.495,34.232z M108.16,22.047H85.875c-0.214,0-0.272,0.157-0.281,0.188v11.998
					c0,0.33,0.146,0.346,0.156,0.346h22.375c0.081,0,0.142-0.021,0.182-0.062c0.054-0.056,0.053-0.135,0.053-0.138V22.393
					C108.358,22.063,108.166,22.047,108.16,22.047L108.16,22.047z"/>
			</g>
			<g>
				<line fill="none" x1="91.208" y1="22.096" x2="91.208" y2="34.618"/>
				<rect x="91.158" y="22.096" fill="#222322" width="0.099" height="12.521"/>
			</g>
			<path fill="#222322" d="M91.226,32.904l0.019-0.097c-0.233-0.048-0.253-0.312-0.254-0.322v-8.258c0-0.447,0.249-0.483,0.25-0.483
				l-0.012-0.098c-0.014,0.002-0.337,0.048-0.337,0.581v8.261C90.899,32.612,90.978,32.854,91.226,32.904z"/>
			<path fill="#1B1A1A" d="M108.357,22.319c0,0-0.091-0.155-0.228-0.155c-0.136,0-1.117,0-1.117,0H85.795
				c0,0-0.202-0.013-0.202,0.105c0,0,0.012-0.225,0.286-0.225c0.273,0,22.249,0,22.249,0S108.357,22.049,108.357,22.319z"/>
		</g>
	</g>
	<g>
		<path fill="#5B595A" d="M90.317,24.132v8.276c0,0-0.046,0.417-0.352,0.417c-0.306,0-3.506,0-3.506,0s-0.306-0.061-0.306-0.55
			s0-8.235,0-8.235s0.082-0.417,0.458-0.417c0.377,0,3.282,0,3.282,0S90.317,23.652,90.317,24.132z"/>
		<path fill="#222322" d="M86.45,32.874c-0.014-0.002-0.346-0.075-0.346-0.599V24.04l0.001-0.009
			c0.001-0.004,0.094-0.458,0.507-0.458h3.282h0.003c0.004,0,0.469,0.04,0.469,0.559v8.276v0.005
			c-0.018,0.159-0.124,0.461-0.4,0.461h-3.512H86.45z M90.268,32.404v-8.272c0-0.417-0.347-0.458-0.376-0.46h-3.279
			c-0.316,0-0.4,0.33-0.41,0.373v8.23c0,0.414,0.227,0.492,0.262,0.501h3.5C90.212,32.776,90.263,32.438,90.268,32.404
			L90.268,32.404z"/>
	</g>
	<g>
		<path fill="#5B595A" d="M90.078,24.153c0,0,0.071-0.296-0.254-0.296c-0.326,0-3.2,0-3.2,0s-0.235,0.031-0.235,0.225
			s0,8.113,0,8.113s-0.051,0.295,0.163,0.295c0.214,0,3.262,0,3.262,0s0.265,0.041,0.265-0.388
			C90.078,31.675,90.078,24.153,90.078,24.153z"/>
		<path fill="#222322" d="M89.81,32.539h-3.258c-0.065,0-0.12-0.022-0.158-0.066c-0.079-0.095-0.06-0.248-0.055-0.281v-8.109
			c0-0.188,0.182-0.261,0.277-0.272l0.003-0.001h3.204c0.116,0,0.202,0.034,0.254,0.103c0.074,0.093,0.055,0.218,0.049,0.248v7.944
			c0,0.405-0.227,0.438-0.296,0.438C89.822,32.54,89.814,32.54,89.81,32.539z M89.823,23.906h-3.197
			c-0.025,0.004-0.188,0.036-0.188,0.175v8.113l-0.001,0.008c-0.006,0.038-0.013,0.15,0.033,0.205
			c0.019,0.021,0.045,0.033,0.082,0.033h3.262l0.007,0.001c0,0,0.005,0,0.011,0c0.059,0,0.197-0.033,0.197-0.339v-7.949l0.001-0.013
			c0-0.001,0.023-0.104-0.029-0.171C89.967,23.927,89.907,23.906,89.823,23.906L89.823,23.906z"/>
	</g>
	<g>
		<path fill="#8E8D8D" d="M100.392,23.081c0-0.102-0.082-0.184-0.184-0.184s-0.184,0.082-0.184,0.184s0.082,0.184,0.184,0.184
			S100.392,23.182,100.392,23.081z"/>
		<path d="M100.01,23.081c0-0.108,0.089-0.198,0.198-0.198s0.198,0.089,0.198,0.198s-0.088,0.198-0.198,0.198
			S100.01,23.19,100.01,23.081z M100.04,23.081c0,0.093,0.076,0.169,0.169,0.169s0.169-0.076,0.169-0.169s-0.076-0.168-0.169-0.168
			C100.115,22.912,100.04,22.987,100.04,23.081z"/>
	</g>
	<g>
		<path fill="#8E8D8D" d="M98.367,23.275c0,0.025,0.022,0.049,0.049,0.049h0.458c0.028,0,0.05-0.022,0.05-0.049v-0.39
			c0-0.027-0.022-0.049-0.05-0.049h-0.458c-0.027,0-0.049,0.021-0.049,0.049V23.275L98.367,23.275z"/>
		<path d="M98.352,23.275v-0.39c0-0.035,0.029-0.063,0.064-0.063h0.458c0.036,0,0.064,0.028,0.064,0.063v0.39
			c0,0.035-0.029,0.063-0.064,0.063h-0.458C98.38,23.339,98.352,23.31,98.352,23.275z M98.416,22.852
			c-0.019,0-0.035,0.016-0.035,0.035v0.389c0,0.018,0.016,0.034,0.035,0.034h0.458c0.02,0,0.035-0.017,0.035-0.034v-0.389
			c0-0.021-0.015-0.035-0.035-0.035H98.416z"/>
	</g>
	<path fill="#96AFD6" d="M86.484,23.105c0,0.026,0.022,0.049,0.049,0.049h3.351c0.027,0,0.049-0.022,0.049-0.049v-0.072
		c0-0.026-0.022-0.049-0.049-0.049h-3.351c-0.027,0-0.049,0.022-0.049,0.049V23.105z"/>
	<polygon fill="#FFFFFF" points="99.813,33.789 99.831,33.76 99.438,33.529 99.263,33.627 99.263,33.565 99.169,33.565 
		99.159,33.674 99.072,33.724 99.089,33.753 99.192,33.695 99.201,33.6 99.228,33.6 99.228,33.687 99.437,33.57 	"/>
	<g>
		<path fill="#FFFFFF" d="M99.789,33.859v0.076h-0.075v-0.076H99.67v0.199h0.044v-0.083h0.075v0.083h0.045v-0.199H99.789z"/>
		<path fill="#FFFFFF" d="M99.542,33.855c0.058,0,0.097,0.045,0.097,0.104s-0.035,0.103-0.094,0.103s-0.098-0.039-0.098-0.104
			C99.447,33.901,99.481,33.855,99.542,33.855z M99.543,33.891c-0.031,0-0.048,0.03-0.048,0.066c0,0.039,0.018,0.067,0.048,0.067
			c0.03,0,0.049-0.027,0.049-0.066S99.574,33.891,99.543,33.891z"/>
		<path fill="#FFFFFF" d="M99.249,33.982c0.001-0.024,0.001-0.053,0.001-0.082h0.001c0.006,0.025,0.015,0.053,0.022,0.077
			l0.024,0.078h0.036l0.021-0.077c0.006-0.024,0.013-0.053,0.018-0.078l0,0c0,0.026,0.002,0.058,0.003,0.083l0.004,0.075h0.042
			l-0.013-0.199h-0.06l-0.02,0.066c-0.007,0.022-0.012,0.048-0.017,0.071H99.31c-0.005-0.022-0.012-0.049-0.019-0.071l-0.021-0.066
			h-0.06l-0.01,0.199h0.043L99.249,33.982z"/>
		<path fill="#FFFFFF" d="M99.049,33.974h0.073v0.047H99.04v0.037h0.126v-0.199h-0.122v0.037h0.078v0.041h-0.074L99.049,33.974
			L99.049,33.974z"/>
	</g>
	<g>
		<rect x="85.714" y="35.357" fill="#3C3C3D" width="22.42" height="0.099"/>
		<rect x="85.714" y="35.593" fill="#3C3C3D" width="22.42" height="0.1"/>
		<rect x="85.714" y="35.83" fill="#3C3C3D" width="22.42" height="0.1"/>
		<rect x="85.714" y="35.348" fill="#222322" width="22.42" height="0.049"/>
		<rect x="85.714" y="35.584" fill="#222322" width="22.42" height="0.049"/>
		<rect x="85.714" y="35.82" fill="#222322" width="22.42" height="0.049"/>
	</g>
	<g>
		<path fill="#8E8D8D" d="M87.749,28.65h0.095v-0.119h-0.095c-0.083,0-0.166-0.086-0.191-0.12l-0.018-0.022h-0.125v0.119h0.068
			C87.524,28.554,87.625,28.65,87.749,28.65z"/>
		<path fill="#8E8D8D" d="M88.466,28.103l0.093-0.075l-0.193-0.241c-0.064-0.07-0.115-0.115-0.235-0.115h-0.717v0.119h0.717
			c0.069,0,0.089,0.016,0.145,0.075L88.466,28.103z"/>
		<polygon fill="#8E8D8D" points="86.982,28.603 87.474,28.603 87.474,27.577 86.982,27.577 86.982,27.696 87.355,27.696 
			87.355,28.483 86.982,28.483 		"/>
		<path fill="#8E8D8D" d="M88.22,28.522c0.075,0,0.148-0.032,0.191-0.081c0.051-0.057,0.051-0.128,0-0.178l-0.382-0.383
			l-0.084,0.084l0.382,0.383c0.002,0.002,0.003,0.003,0.003,0.003c-0.001,0.005-0.016,0.025-0.051,0.04
			c-0.037,0.016-0.091,0.021-0.133-0.011l-0.135-0.134h-0.167c-0.087,0-0.132-0.044-0.132-0.132h-0.119
			c0,0.116,0.065,0.251,0.25,0.251h0.118l0.108,0.106C88.115,28.507,88.167,28.522,88.22,28.522z"/>
		<polygon fill="#8E8D8D" points="87.785,28.938 89.05,28.938 89.05,28.007 88.131,28.007 88.131,28.126 88.931,28.126 
			88.931,28.818 87.904,28.818 87.904,28.305 87.785,28.305 		"/>
		<path fill="#8E8D8D" d="M89.308,28.81c0.015,0,0.03-0.006,0.042-0.019c0.083-0.084,0.129-0.194,0.129-0.313
			s-0.045-0.229-0.129-0.313c-0.023-0.023-0.061-0.023-0.084,0c-0.023,0.022-0.023,0.062,0,0.084
			c0.062,0.062,0.095,0.143,0.095,0.229s-0.033,0.167-0.095,0.228c-0.023,0.023-0.023,0.063,0,0.085
			C89.278,28.802,89.292,28.81,89.308,28.81z"/>
		<path fill="#8E8D8D" d="M89.456,28.927c0.015,0,0.03-0.006,0.042-0.017c0.115-0.116,0.179-0.269,0.179-0.432
			s-0.063-0.316-0.179-0.432c-0.023-0.022-0.061-0.022-0.084,0s-0.023,0.062,0,0.084c0.093,0.093,0.144,0.216,0.144,0.348
			s-0.051,0.254-0.144,0.348c-0.023,0.023-0.023,0.061,0,0.084C89.425,28.922,89.441,28.927,89.456,28.927z"/>
		<path fill="#8E8D8D" d="M89.181,28.683c0.016,0,0.031-0.007,0.043-0.019c0.102-0.103,0.102-0.269,0-0.371
			c-0.024-0.021-0.061-0.021-0.085,0c-0.023,0.023-0.023,0.063,0,0.084c0.056,0.058,0.056,0.146,0,0.203
			c-0.023,0.022-0.023,0.062,0,0.084C89.151,28.676,89.166,28.683,89.181,28.683z"/>
	</g>
	<g>
		<path fill="#222322" d="M87.749,28.616h0.095v-0.119h-0.095c-0.083,0-0.166-0.086-0.191-0.12l-0.018-0.022h-0.125v0.119h0.068
			C87.524,28.52,87.625,28.616,87.749,28.616z"/>
		<path fill="#222322" d="M88.466,28.068l0.093-0.074l-0.193-0.242c-0.064-0.068-0.115-0.114-0.235-0.114h-0.717v0.118h0.717
			c0.069,0,0.089,0.015,0.145,0.075L88.466,28.068z"/>
		<polygon fill="#222322" points="86.982,28.569 87.474,28.569 87.474,27.542 86.982,27.542 86.982,27.662 87.355,27.662 
			87.355,28.449 86.982,28.449 		"/>
		<path fill="#222322" d="M88.22,28.488c0.075,0,0.148-0.032,0.191-0.081c0.051-0.057,0.051-0.128,0-0.178l-0.382-0.383
			l-0.084,0.084l0.382,0.382c0.002,0.002,0.003,0.004,0.003,0.004c-0.001,0.004-0.016,0.023-0.051,0.039
			c-0.037,0.016-0.091,0.021-0.133-0.011l-0.135-0.134h-0.167c-0.087,0-0.132-0.044-0.132-0.131h-0.119
			c0,0.115,0.065,0.25,0.25,0.25h0.118l0.108,0.107C88.115,28.472,88.167,28.488,88.22,28.488z"/>
		<polygon fill="#222322" points="87.785,28.903 89.05,28.903 89.05,27.972 88.131,27.972 88.131,28.091 88.931,28.091 
			88.931,28.784 87.904,28.784 87.904,28.271 87.785,28.271 		"/>
		<path fill="#222322" d="M89.308,28.774c0.015,0,0.03-0.006,0.042-0.018c0.083-0.084,0.129-0.194,0.129-0.313
			s-0.045-0.229-0.129-0.313c-0.023-0.022-0.061-0.022-0.084,0s-0.023,0.062,0,0.084c0.062,0.062,0.095,0.143,0.095,0.229
			s-0.033,0.167-0.095,0.229c-0.023,0.022-0.023,0.062,0,0.084C89.278,28.769,89.292,28.774,89.308,28.774z"/>
		<path fill="#222322" d="M89.456,28.894c0.015,0,0.03-0.006,0.042-0.019c0.115-0.116,0.179-0.269,0.179-0.432
			s-0.063-0.315-0.179-0.431c-0.023-0.023-0.061-0.023-0.084,0c-0.023,0.022-0.023,0.062,0,0.085
			c0.093,0.092,0.144,0.215,0.144,0.346s-0.051,0.254-0.144,0.348c-0.023,0.022-0.023,0.062,0,0.084
			C89.425,28.887,89.441,28.894,89.456,28.894z"/>
		<path fill="#222322" d="M89.181,28.647c0.016,0,0.031-0.006,0.043-0.019c0.102-0.102,0.102-0.269,0-0.371
			c-0.024-0.022-0.061-0.022-0.085,0c-0.023,0.023-0.023,0.062,0,0.085c0.056,0.056,0.056,0.146,0,0.202
			c-0.023,0.023-0.023,0.062,0,0.084C89.151,28.642,89.166,28.647,89.181,28.647z"/>
	</g>
	<g>
		<g>
			<g>
				<g>
					<g>
						<g>
							<g>
								<g>
									<g>
										<defs>
											<rect id="SVGID_10_" x="92.708" y="24.09" width="14.652" height="8.879"/>
										</defs>
										<clipPath id="SVGID_11_">
											<use xlink:href="#SVGID_10_"  overflow="visible"/>
										</clipPath>
										<rect x="91.737" y="23.927" clip-path="url(#SVGID_11_)" fill="#7CB543" width="16.3" height="9.392"/>
									</g>
								</g>
							</g>
						</g>
					</g>
				</g>
			</g>
		</g>
	</g>
	<path opacity="0.3" fill="#FFFFFF" enable-background="new    " d="M100.245,22.051l8.17,8.375l-0.028-7.866
		c0,0,0.169-0.509-0.48-0.509C107.255,22.051,100.245,22.051,100.245,22.051z"/>
	<path fill="#FFFFFF" d="M94.964,31.052c0,0.109,0.085,0.196,0.189,0.196h9.983c0.105,0,0.19-0.087,0.19-0.196v-4.695
		c0-0.108-0.085-0.197-0.19-0.197h-9.983c-0.104,0-0.189,0.088-0.189,0.197V31.052L94.964,31.052z"/>
	<g>
		<path fill="#7CB543" d="M100.888,27.287c0,0.136-0.084,0.214-0.231,0.214h-0.103v0.16h-0.151v-0.577h0.254
			C100.803,27.084,100.888,27.159,100.888,27.287z M100.745,27.292c0-0.058-0.035-0.088-0.096-0.088h-0.095v0.178h0.095
			C100.709,27.382,100.745,27.351,100.745,27.292z"/>
		<path fill="#7CB543" d="M101.412,27.438c0,0.138-0.098,0.229-0.244,0.229s-0.243-0.09-0.243-0.229
			c0-0.137,0.096-0.228,0.243-0.228S101.412,27.302,101.412,27.438z M101.073,27.44c0,0.066,0.039,0.111,0.096,0.111
			c0.058,0,0.097-0.045,0.097-0.111c0-0.065-0.039-0.11-0.097-0.11C101.112,27.33,101.073,27.375,101.073,27.44z"/>
		<path fill="#7CB543" d="M101.632,27.217v0.445h-0.146v-0.445H101.632z M101.627,27.091c0,0.038-0.028,0.067-0.067,0.067
			c-0.038,0-0.066-0.029-0.066-0.067c0-0.04,0.028-0.066,0.066-0.066C101.599,27.024,101.627,27.052,101.627,27.091z"/>
		<path fill="#7CB543" d="M102.2,27.38v0.281h-0.146v-0.239c0-0.05-0.029-0.081-0.075-0.081c-0.05,0.001-0.082,0.035-0.088,0.084
			v0.236h-0.146v-0.445h0.146v0.071c0.031-0.05,0.083-0.078,0.148-0.078C102.135,27.21,102.2,27.276,102.2,27.38z"/>
		<path fill="#7CB543" d="M102.589,27.639c-0.032,0.019-0.076,0.029-0.12,0.029c-0.086,0-0.149-0.05-0.149-0.142v-0.192h-0.062
			v-0.096h0.062v-0.124h0.146v0.124h0.115v0.096h-0.115v0.168c0,0.033,0.015,0.048,0.041,0.047c0.015,0,0.034-0.006,0.055-0.015
			L102.589,27.639z"/>
		<path fill="#7CB543" d="M103.055,27.371v0.291h-0.144v-0.05c-0.029,0.037-0.074,0.057-0.134,0.057
			c-0.095,0-0.152-0.058-0.152-0.139c0-0.085,0.061-0.133,0.171-0.135h0.116V27.39c0-0.042-0.029-0.066-0.084-0.066
			c-0.038,0-0.085,0.012-0.133,0.036l-0.041-0.098c0.07-0.032,0.134-0.05,0.208-0.05C102.982,27.21,103.054,27.27,103.055,27.371z
			 M102.911,27.51v-0.038h-0.087c-0.041,0-0.062,0.016-0.062,0.046c0,0.029,0.022,0.05,0.06,0.05
			C102.865,27.568,102.901,27.544,102.911,27.51z"/>
		<path fill="#7CB543" d="M103.58,27.217v0.406c0,0.125-0.098,0.205-0.242,0.205c-0.078,0-0.149-0.026-0.2-0.059l0.051-0.102
			c0.041,0.028,0.09,0.043,0.138,0.043c0.066,0,0.107-0.034,0.107-0.086v-0.047c-0.029,0.038-0.072,0.058-0.126,0.058
			c-0.111,0-0.19-0.086-0.19-0.215c0-0.126,0.077-0.21,0.187-0.21c0.056,0,0.101,0.021,0.13,0.061v-0.055H103.58L103.58,27.217
			L103.58,27.217z M103.434,27.426c0-0.062-0.036-0.104-0.09-0.104c-0.054,0-0.091,0.042-0.091,0.104
			c0,0.063,0.037,0.104,0.091,0.104C103.397,27.53,103.434,27.487,103.434,27.426z"/>
		<path fill="#7CB543" d="M104.107,27.478h-0.309c0.014,0.05,0.051,0.078,0.101,0.078c0.038,0,0.075-0.016,0.104-0.046l0.076,0.077
			c-0.045,0.051-0.112,0.079-0.194,0.079c-0.146,0-0.235-0.09-0.235-0.226c0-0.139,0.093-0.229,0.232-0.229
			C104.038,27.211,104.117,27.316,104.107,27.478z M103.965,27.4c0-0.051-0.033-0.086-0.082-0.086c-0.047,0-0.079,0.035-0.089,0.086
			H103.965z"/>
		<path fill="#7CB543" d="M101.1,28.198v0.134c-0.082-0.008-0.136,0.028-0.143,0.09v0.228h-0.146v-0.445h0.146v0.074
			C100.988,28.227,101.038,28.198,101.1,28.198z"/>
		<path fill="#7CB543" d="M101.585,28.465h-0.31c0.014,0.051,0.051,0.079,0.102,0.079c0.038,0,0.075-0.016,0.104-0.046l0.076,0.077
			c-0.045,0.051-0.112,0.079-0.194,0.079c-0.146,0-0.235-0.089-0.235-0.227s0.093-0.229,0.232-0.229
			C101.516,28.199,101.595,28.302,101.585,28.465z M101.443,28.387c0-0.051-0.033-0.086-0.083-0.086
			c-0.048,0-0.079,0.034-0.089,0.086H101.443z M101.394,28.157h-0.111l0.088-0.142l0.131,0.046L101.394,28.157z"/>
		<path fill="#7CB543" d="M102.095,28.204v0.445h-0.146v-0.072c-0.03,0.051-0.079,0.078-0.143,0.079
			c-0.096,0-0.159-0.067-0.159-0.17v-0.282h0.146v0.24c0,0.05,0.028,0.08,0.072,0.08c0.052,0,0.083-0.041,0.083-0.1v-0.221H102.095
			L102.095,28.204L102.095,28.204z"/>
		<path fill="#7CB543" d="M102.362,28.299c-0.024,0-0.042,0.01-0.042,0.029c0,0.06,0.234,0.03,0.233,0.186
			c0,0.091-0.08,0.144-0.189,0.144c-0.075,0-0.146-0.021-0.201-0.063l0.046-0.094c0.051,0.035,0.109,0.056,0.158,0.056
			c0.027,0,0.047-0.01,0.047-0.028c0-0.062-0.229-0.031-0.229-0.186c0-0.092,0.078-0.143,0.183-0.143
			c0.064,0,0.129,0.018,0.186,0.051l-0.05,0.097C102.449,28.315,102.399,28.299,102.362,28.299z"/>
		<path fill="#7CB543" d="M102.788,28.299c-0.025,0-0.042,0.01-0.042,0.029c0,0.06,0.234,0.03,0.233,0.186
			c0,0.091-0.08,0.144-0.189,0.144c-0.075,0-0.146-0.021-0.2-0.063l0.046-0.094c0.05,0.035,0.108,0.056,0.158,0.056
			c0.027,0,0.046-0.01,0.046-0.028c0-0.062-0.229-0.031-0.229-0.186c0-0.092,0.079-0.143,0.183-0.143
			c0.064,0,0.129,0.018,0.185,0.051l-0.049,0.097C102.875,28.315,102.824,28.299,102.788,28.299z"/>
		<path fill="#7CB543" d="M103.203,28.204v0.445h-0.146v-0.445H103.203z M103.198,28.079c0,0.039-0.028,0.067-0.067,0.067
			c-0.038,0-0.066-0.028-0.066-0.067s0.028-0.068,0.066-0.068C103.17,28.01,103.198,28.04,103.198,28.079z"/>
		<path fill="#7CB543" d="M103.686,28.584c0,0.042-0.029,0.072-0.071,0.072c-0.041,0-0.069-0.03-0.069-0.072s0.028-0.07,0.069-0.07
			C103.656,28.513,103.686,28.542,103.686,28.584z M103.688,28.076v0.146l-0.025,0.227h-0.088l-0.025-0.227v-0.146H103.688z"/>
	</g>
	<g>
		<path fill="#868584" d="M101.048,29.447l0.077,0.171l0.078-0.171h0.083v0.292h-0.068v-0.185l-0.068,0.155h-0.05l-0.068-0.155
			v0.185h-0.068v-0.292H101.048z"/>
		<path fill="#868584" d="M101.544,29.593v0.146h-0.073v-0.025c-0.015,0.02-0.038,0.029-0.069,0.029
			c-0.048,0-0.077-0.029-0.077-0.07c0-0.043,0.03-0.067,0.086-0.068h0.059v-0.002c0-0.021-0.015-0.034-0.043-0.034
			c-0.018,0-0.043,0.006-0.067,0.018l-0.021-0.05c0.035-0.015,0.068-0.023,0.105-0.023C101.507,29.51,101.544,29.542,101.544,29.593
			z M101.472,29.664v-0.02h-0.045c-0.021,0-0.031,0.007-0.031,0.022c0,0.015,0.011,0.024,0.031,0.024
			C101.448,29.692,101.466,29.681,101.472,29.664z"/>
		<path fill="#868584" d="M101.741,29.51v0.068c-0.042-0.004-0.069,0.015-0.073,0.045v0.115h-0.074v-0.226h0.074v0.037
			C101.684,29.526,101.709,29.51,101.741,29.51z"/>
		<path fill="#868584" d="M101.875,29.573c-0.027,0-0.045,0.021-0.045,0.054s0.018,0.055,0.045,0.055
			c0.02,0,0.035-0.008,0.044-0.025l0.055,0.032c-0.018,0.035-0.055,0.054-0.103,0.054c-0.069,0-0.116-0.046-0.116-0.115
			s0.047-0.116,0.117-0.116c0.046,0,0.082,0.021,0.101,0.054l-0.054,0.031C101.909,29.582,101.895,29.573,101.875,29.573z"/>
		<path fill="#868584" d="M102.415,29.594c0,0.088-0.064,0.146-0.158,0.146h-0.123v-0.292h0.125
			C102.352,29.447,102.415,29.506,102.415,29.594z M102.337,29.594c0-0.05-0.033-0.084-0.08-0.084h-0.048v0.168h0.052
			C102.306,29.677,102.337,29.644,102.337,29.594z"/>
		<path fill="#868584" d="M102.584,29.677c0.034,0,0.057-0.021,0.057-0.061v-0.17h0.076v0.17c0,0.077-0.052,0.126-0.134,0.126
			c-0.083,0-0.136-0.049-0.136-0.126v-0.17h0.077v0.17C102.524,29.655,102.55,29.677,102.584,29.677z"/>
		<path fill="#868584" d="M103.016,29.55c0,0.068-0.043,0.108-0.118,0.108h-0.052v0.081h-0.077v-0.292h0.129
			C102.973,29.447,103.016,29.485,103.016,29.55z M102.943,29.552c0-0.029-0.018-0.044-0.048-0.044h-0.049v0.09h0.049
			C102.925,29.598,102.943,29.583,102.943,29.552z"/>
		<path fill="#868584" d="M103.185,29.677c0.034,0,0.057-0.021,0.057-0.061v-0.17h0.077v0.17c0,0.077-0.052,0.126-0.134,0.126
			s-0.136-0.049-0.136-0.126v-0.17h0.077v0.17C103.125,29.655,103.149,29.677,103.185,29.677z"/>
		<path fill="#868584" d="M103.446,29.447v0.292h-0.076v-0.292H103.446z"/>
		<path fill="#868584" d="M103.61,29.505c-0.019,0-0.03,0.008-0.03,0.021c0,0.048,0.154,0.021,0.154,0.126
			c0,0.059-0.053,0.09-0.118,0.09c-0.048,0-0.099-0.019-0.134-0.047l0.029-0.061c0.03,0.025,0.076,0.045,0.106,0.045
			c0.022,0,0.037-0.009,0.037-0.023c0-0.049-0.154-0.021-0.154-0.123c0-0.054,0.046-0.089,0.117-0.089
			c0.043,0,0.086,0.014,0.117,0.033l-0.029,0.06C103.673,29.52,103.634,29.505,103.61,29.505z"/>
		<path fill="#868584" d="M100.065,30.032c0-0.015-0.012-0.024-0.033-0.024c-0.024,0-0.054,0.015-0.081,0.037l-0.029-0.057
			c0.038-0.028,0.079-0.044,0.122-0.044c0.059,0,0.102,0.031,0.102,0.077c0,0.031-0.024,0.064-0.057,0.098l-0.06,0.062h0.125v0.062
			h-0.223l-0.001-0.05l0.107-0.11C100.053,30.064,100.065,30.045,100.065,30.032z"/>
		<path fill="#868584" d="M100.401,30.023c0,0.023-0.014,0.047-0.035,0.06c0.03,0.015,0.05,0.041,0.05,0.074
			c0,0.054-0.046,0.086-0.118,0.086c-0.071,0-0.117-0.033-0.117-0.084c0-0.034,0.021-0.063,0.054-0.076
			c-0.024-0.013-0.039-0.038-0.039-0.063c0-0.047,0.041-0.077,0.102-0.077C100.361,29.944,100.401,29.975,100.401,30.023z
			 M100.252,30.151c0,0.022,0.016,0.037,0.046,0.037c0.03,0,0.046-0.015,0.046-0.037c0-0.023-0.016-0.037-0.046-0.037
			C100.268,30.114,100.252,30.128,100.252,30.151z M100.259,30.027c0,0.021,0.013,0.032,0.039,0.032c0.026,0,0.04-0.012,0.04-0.032
			c0-0.021-0.014-0.032-0.04-0.032C100.272,29.995,100.259,30.007,100.259,30.027z"/>
		<path fill="#868584" d="M100.573,30.325c-0.021,0-0.042-0.005-0.058-0.015l0.019-0.054c0.008,0.006,0.016,0.009,0.025,0.009
			c0.013,0,0.021-0.008,0.021-0.024v-0.226h0.075v0.23C100.656,30.297,100.62,30.325,100.573,30.325z M100.66,29.95
			c0,0.023-0.017,0.04-0.042,0.04c-0.025,0-0.042-0.017-0.042-0.04s0.018-0.04,0.042-0.04S100.66,29.927,100.66,29.95z"/>
		<path fill="#868584" d="M100.936,30.015v0.226h-0.074v-0.037c-0.016,0.027-0.04,0.04-0.072,0.04c-0.049,0-0.081-0.034-0.081-0.086
			v-0.142h0.074v0.121c0,0.025,0.014,0.04,0.036,0.04c0.027-0.001,0.043-0.021,0.043-0.051v-0.109h0.074V30.015z"/>
		<path fill="#868584" d="M101.066,30.015v0.226h-0.074v-0.226H101.066z M101.063,29.952c0,0.02-0.014,0.034-0.034,0.034
			s-0.034-0.015-0.034-0.034c0-0.021,0.014-0.035,0.034-0.035S101.063,29.931,101.063,29.952z"/>
		<path fill="#868584" d="M101.199,29.931v0.31h-0.074v-0.31H101.199z"/>
		<path fill="#868584" d="M101.334,29.931v0.31h-0.074v-0.31H101.334z"/>
		<path fill="#868584" d="M101.606,30.147h-0.157c0.006,0.024,0.025,0.04,0.051,0.04c0.019,0,0.038-0.008,0.053-0.023l0.039,0.039
			c-0.023,0.027-0.057,0.04-0.098,0.04c-0.074,0-0.12-0.045-0.12-0.114c0-0.07,0.047-0.116,0.118-0.116
			C101.571,30.012,101.611,30.065,101.606,30.147z M101.535,30.107c0-0.026-0.017-0.043-0.042-0.043
			c-0.025,0-0.041,0.017-0.046,0.043H101.535z"/>
		<path fill="#868584" d="M101.792,30.228c-0.017,0.01-0.039,0.016-0.061,0.016c-0.043,0.001-0.076-0.026-0.076-0.072v-0.098h-0.031
			v-0.049h0.031v-0.063h0.074v0.063h0.058v0.049h-0.058v0.085c0,0.017,0.007,0.024,0.021,0.024c0.007,0,0.017-0.003,0.028-0.009
			L101.792,30.228z"/>
		<path fill="#868584" d="M102.077,30.032c0-0.015-0.012-0.024-0.033-0.024c-0.023,0-0.054,0.015-0.081,0.037l-0.028-0.057
			c0.037-0.028,0.078-0.044,0.121-0.044c0.059,0,0.102,0.031,0.102,0.077c0,0.031-0.024,0.064-0.057,0.098l-0.06,0.062h0.125v0.062
			h-0.223l-0.001-0.05l0.107-0.11C102.065,30.064,102.077,30.045,102.077,30.032z"/>
		<path fill="#868584" d="M102.425,30.094c0,0.097-0.041,0.149-0.114,0.149c-0.075,0-0.115-0.053-0.115-0.149
			c0-0.095,0.04-0.146,0.115-0.146C102.384,29.946,102.425,29.999,102.425,30.094z M102.269,30.094c0,0.067,0.012,0.096,0.042,0.096
			c0.029,0,0.042-0.028,0.042-0.096c0-0.066-0.012-0.094-0.042-0.094C102.281,30,102.269,30.027,102.269,30.094z"/>
		<path fill="#868584" d="M102.592,30.032c0-0.015-0.012-0.024-0.034-0.024c-0.023,0-0.054,0.015-0.081,0.037l-0.029-0.057
			c0.038-0.028,0.079-0.044,0.121-0.044c0.06,0,0.103,0.031,0.103,0.077c0,0.031-0.024,0.064-0.057,0.098l-0.061,0.062h0.125v0.062
			h-0.223v-0.05l0.106-0.11C102.58,30.064,102.592,30.045,102.592,30.032z"/>
		<path fill="#868584" d="M102.867,29.948v0.292h-0.076v-0.23h-0.056v-0.063L102.867,29.948L102.867,29.948z"/>
		<path fill="#868584" d="M103.308,30.094v0.147h-0.073v-0.026c-0.015,0.02-0.038,0.029-0.069,0.029
			c-0.048,0-0.077-0.029-0.077-0.071c0-0.043,0.03-0.067,0.086-0.067h0.059v-0.003c0-0.021-0.015-0.034-0.043-0.034
			c-0.018,0-0.043,0.006-0.067,0.019l-0.02-0.05c0.035-0.017,0.067-0.024,0.105-0.024C103.271,30.012,103.308,30.042,103.308,30.094
			z M103.186,29.99l-0.055-0.048l0.067-0.022l0.044,0.07H103.186L103.186,29.99z M103.235,30.164v-0.02h-0.044
			c-0.021,0-0.032,0.008-0.032,0.023s0.011,0.025,0.031,0.025C103.212,30.193,103.23,30.181,103.235,30.164z"/>
		<path fill="#868584" d="M103.626,29.948v0.292h-0.077v-0.23h-0.056v-0.063L103.626,29.948L103.626,29.948z"/>
		<path fill="#868584" d="M103.883,29.947l-0.081,0.171h0.055v-0.062h0.07v0.062h0.038v0.058h-0.038v0.064h-0.07v-0.064h-0.132
			v-0.051l0.086-0.178H103.883L103.883,29.947z"/>
		<path fill="#868584" d="M104.231,30.098v0.143h-0.074V30.12c0-0.026-0.015-0.042-0.039-0.042
			c-0.027,0.001-0.044,0.021-0.044,0.051v0.112H104v-0.31h0.074v0.119c0.016-0.024,0.042-0.038,0.074-0.038
			C104.199,30.012,104.231,30.045,104.231,30.098z"/>
		<path fill="#868584" d="M104.424,29.948v0.292h-0.077v-0.23h-0.056v-0.063L104.424,29.948L104.424,29.948z"/>
		<path fill="#868584" d="M104.754,30.094c0,0.097-0.041,0.149-0.114,0.149c-0.074,0-0.115-0.053-0.115-0.149
			c0-0.095,0.041-0.146,0.115-0.146C104.713,29.946,104.754,29.999,104.754,30.094z M104.598,30.094
			c0,0.067,0.012,0.096,0.042,0.096c0.03,0,0.042-0.028,0.042-0.096c0-0.066-0.012-0.094-0.042-0.094
			C104.61,30,104.598,30.027,104.598,30.094z"/>
	</g>
	<g>
		<g>
			<g>
				<g>
					<g>
						<g>
							<g>
								<g>
									<g>
										<defs>
											<rect id="SVGID_12_" x="95.618" y="26.689" width="3.759" height="3.811"/>
										</defs>
										<clipPath id="SVGID_13_">
											<use xlink:href="#SVGID_12_"  overflow="visible"/>
										</clipPath>
										<g clip-path="url(#SVGID_13_)">
											<rect x="95.163" y="26.644" fill="#ACCC71" width="4.342" height="4.196"/>
											<g>
												<g>
													<g>
														<path fill="#B2764A" d="M95.563,31.775c0,0,1.738-0.146,3.484,0C99.046,31.775,96.521,31.927,95.563,31.775z"/>
														<path fill="#B2764A" d="M95.793,34.221c0,0,1.912-0.16,3.046,0.048C98.839,34.269,96.757,34.344,95.793,34.221z"/>
														<path fill="#B2764A" d="M96.618,31.754c0,0-0.228-0.448-0.055-0.923c0,0-0.03,0.712,0.163,0.908
															c0,0-0.168,0.511-0.095,0.857C96.631,32.596,96.459,32.314,96.618,31.754z"/>
														<path fill="#B2764A" d="M97.956,31.754c0,0,0.229-0.448,0.057-0.923c0,0,0.028,0.712-0.162,0.908
															c0,0,0.166,0.511,0.091,0.857C97.942,32.596,98.116,32.314,97.956,31.754z"/>
														<path fill="#B2764A" d="M96.746,34.204c0,0-0.227-0.448-0.056-0.924c0,0-0.029,0.713,0.162,0.908
															c0,0-0.166,0.512-0.093,0.857C96.759,35.046,96.587,34.763,96.746,34.204z"/>
														<path fill="#B2764A" d="M97.847,34.204c0,0,0.228-0.448,0.057-0.924c0,0,0.029,0.713-0.163,0.908
															c0,0,0.166,0.512,0.092,0.857C97.833,35.046,98.006,34.763,97.847,34.204z"/>
													</g>
													<g>
														<path fill="#4D4A48" d="M96.64,30.404l0.639,2.809l0.636-2.82c0.634,0.107,1.023,0.351,1.023,0.351l-0.328,4.204
															c-1.498,0.428-2.615,0-2.615,0l-0.36-4.204C95.986,30.572,96.325,30.465,96.64,30.404z"/>
														<path fill="#383737" d="M97.274,33.192l0.004,0.021l0.004-0.018c0.408,0.182,0.887,0.299,1.44,0.294l-0.112,1.458
															c-1.498,0.428-2.615,0-2.615,0l-0.259-3.034C96.031,32.316,96.536,32.86,97.274,33.192z"/>
														<g>
															<path fill="#4D4A48" d="M98.938,30.743c0,0,0.421,0.264,1.007,1.623c0.583,1.357-0.071,1.386-0.071,1.386
																s-0.567-0.285-1.123-1.558C98.565,31.769,98.886,30.833,98.938,30.743z"/>
															<path fill="#565453" d="M99.598,31.98c0,0,0.244-0.038,0.401,0.296c0.318,0.673,0.288,1.251,0.03,1.411
																c-0.377,0.229-0.75-0.241-0.742-1.372C99.288,31.969,99.598,31.98,99.598,31.98z"/>
															<path fill="#F3F3F2" d="M99.354,32.142c0.119-0.141,0.337-0.147,0.491-0.018c0.155,0.131,0.183,0.349,0.065,0.488
																c-0.117,0.139-0.338,0.146-0.492,0.016C99.265,32.501,99.237,32.281,99.354,32.142z"/>
															<polygon fill="#221513" points="99.37,31.165 98.861,32.3 98.856,32.49 98.995,32.358 99.504,31.225 															
																"/>
															<path fill="#E7A77C" d="M99.052,32.365l-0.053-0.2c0,0-0.043,0.01-0.103-0.076l0.06-0.067c0,0-0.04-0.076,0-0.126
																c0.039-0.051,0.3-0.261,0.464-0.256c0.166,0.005,0.412,0.521,0.412,0.521s0.077,0.283-0.164,0.329
																c-0.243,0.046-0.316-0.082-0.316-0.082S99.104,32.552,99.052,32.365z"/>
														</g>
														<path fill="#D7D9D7" d="M96.611,30.411c0.485-0.092,0.97-0.075,1.326-0.014L97.274,33.3L96.611,30.411z"/>
														<polygon fill="#5CB8A6" points="97.567,30.831 97.377,31.066 97.567,32.656 97.269,33.398 96.963,32.687 
															97.177,31.052 97.031,30.831 97.297,30.555 														"/>
														<g>
															<path fill="#E7A77C" d="M97.667,29.985l0.017,0.448c0,0-0.106,0.158-0.366,0.173
																c-0.26,0.014-0.382-0.132-0.382-0.132l-0.023-0.665C97.231,29.949,97.542,30.005,97.667,29.985z"/>
															<path opacity="0.5" fill="#B27248" enable-background="new    " d="M96.913,30.118l-0.023-0.474l0.749-0.042
																l0.029,0.692C97.542,30.313,97.231,30.259,96.913,30.118z"/>
														</g>
														<path fill="#F3F3F2" d="M96.913,30.164c0,0,0.014,0.271,0.393,0.366c0,0,0.335-0.073,0.366-0.366l0.225,0.222
															c0,0,0.017,0.42-0.33,0.548l-0.262-0.325l-0.301,0.34c0,0-0.387-0.345-0.362-0.559L96.913,30.164z"/>
														<polygon fill="#434140" points="98.22,30.438 98.22,31.552 97.917,31.642 98.08,31.937 97.28,33.55 96.49,31.91 
															96.652,31.671 96.391,31.64 96.348,30.472 96.675,30.362 97.279,33.213 97.881,30.362 														"/>
														<g>
															<path fill="#4D4A48" d="M95.641,30.743c0,0-0.387-0.042-0.98,2.601c0,0-0.013,0.426,0.374,0.443
																c0.384,0.016,1.467,0.016,1.467,0.016s0.269-0.285,0.021-0.711l-0.883-0.148l0.183-0.562
																C95.824,32.381,95.954,31.293,95.641,30.743z"/>
															<path fill="#F3F3F2" d="M96.435,33.181c0,0-0.174,0.324-0.028,0.582h0.283c0,0,0.189-0.25,0.036-0.557L96.435,33.181
																z"/>
															<path fill="#E7A77C" d="M96.644,33.32c0,0,0.602-0.056,0.733,0.021c0.135,0.077,0.586,0.324,0.546,0.428
																c0,0-0.047,0.054-0.185,0.021c-0.137-0.033-0.289,0.008-0.526-0.046L97.098,33.7c0,0-0.287,0.145-0.454-0.03
																C96.477,33.496,96.644,33.32,96.644,33.32z"/>
														</g>
														<rect x="96.446" y="33.727" fill="#FFFFFF" width="2.596" height="0.072"/>
													</g>
												</g>
												<g>
													<path fill="#6A3918" d="M96.579,27.848c0,0,0.751,0.358,0.934,0.337c0.179-0.019,0.76-0.296,0.76-0.296
														c0.074,0.347-0.109,0.649-0.109,0.649l-1.632,0.377l-0.278,0.073c-0.074-0.294-0.136-0.597-0.136-0.771
														C96.454,28.142,96.579,27.848,96.579,27.848z"/>
													<path fill="#8D5931" d="M96.325,27.649c0.146-0.59,1.155-0.631,1.155-0.631c0.531-0.322,0.332,0.09,0.332,0.09
														c0.888-0.318,0.464,0.481,0.464,0.481c0.33-0.011-0.004,0.3-0.004,0.3s-0.581,0.277-0.76,0.296
														c-0.183,0.021-0.934-0.337-0.934-0.337s-0.125,0.294-0.462,0.369C96.119,27.691,96.325,27.649,96.325,27.649z"/>
													<path fill="#E7A77C" d="M96.325,28.774l0.123,0.104c0.026-0.061,0.046-0.125,0.064-0.189
														c0.099-0.373,0.067-0.84,0.067-0.84c0.855,0.332,1.589,0.092,1.589,0.092c-0.041,0.425,0.099,1.36-0.225,1.842
														c-0.098,0.144-0.22,0.263-0.427,0.295c-0.896,0.14-1.125-0.737-1.125-0.737s-0.281,0.076-0.34-0.338
														C96.005,28.659,96.325,28.774,96.325,28.774z"/>
													<path opacity="0.5" fill="#C78457" enable-background="new    " d="M96.707,28.001c0,0-0.072,0.396-0.183,0.633
														c0.083-0.354,0.055-0.785,0.055-0.785c0.855,0.332,1.589,0.092,1.589,0.092c-0.005,0.046-0.007,0.099-0.007,0.157
														C97.828,28.143,97.233,28.184,96.707,28.001z"/>
													<path fill="#B6805B" d="M98.204,27.036c0,0-0.373,0.367-1.247,0.367c0,0,0.57,0.396,1.348,0.132
														C98.304,27.535,98.5,27.064,98.204,27.036z"/>
													<path opacity="0.5" fill="#C78457" enable-background="new    " d="M96.458,29.238
														c0.077,0.223,0.362,0.769,0.973,0.735c0.331-0.019,0.499-0.237,0.61-0.39c-0.028,0.073-0.06,0.139-0.098,0.198
														c-0.098,0.144-0.22,0.263-0.427,0.295c-0.896,0.14-1.125-0.737-1.125-0.737s-0.215,0.062-0.31-0.213
														C96.247,29.404,96.458,29.238,96.458,29.238z"/>
													<g>
														<path fill="#813421" d="M97.094,29.44c0,0,0.325,0.067,0.629,0c0,0-0.055,0.279-0.315,0.278
															C97.162,29.719,97.096,29.495,97.094,29.44z"/>
														<path fill="#FFFFFF" d="M97.416,29.574c0.201,0,0.258-0.084,0.284-0.129c-0.236,0.046-0.425,0.019-0.59-0.001
															C97.127,29.494,97.226,29.574,97.416,29.574z"/>
													</g>
													<path fill="#8D5931" d="M97.259,28.332l-0.007,0.065c0,0-0.274-0.044-0.423,0.062
														C96.829,28.459,96.932,28.296,97.259,28.332z"/>
													<path fill="#8D5931" d="M97.609,28.339l0.008,0.073c0,0,0.214-0.06,0.332,0.036
														C97.949,28.448,97.881,28.298,97.609,28.339z"/>
													<path fill="#D59467" d="M97.572,29.211c0.039-0.009,0.078-0.053,0.063-0.086c-0.018-0.043-0.066-0.095-0.089-0.146
														c0,0,0.095,0.082,0.141,0.127c0.057,0.055-0.003,0.146-0.09,0.148c-0.096,0.003-0.169-0.016-0.174-0.057
														C97.45,29.216,97.487,29.23,97.572,29.211z"/>
													<path fill="#2C1712" d="M97.871,28.827c0,0.086-0.054,0.156-0.122,0.156c-0.069,0-0.124-0.07-0.124-0.156
														c0-0.085,0.055-0.155,0.124-0.155C97.817,28.672,97.871,28.742,97.871,28.827z"/>
													<path fill="#FFFFFF" d="M97.71,28.874c0,0.018-0.014,0.029-0.03,0.029c-0.013,0-0.026-0.012-0.026-0.029
														c0-0.015,0.013-0.027,0.026-0.027C97.696,28.846,97.71,28.859,97.71,28.874z"/>
													<path fill="#FFFFFF" d="M97.818,28.759c0,0.037-0.03,0.067-0.066,0.067c-0.039,0-0.066-0.03-0.066-0.067
														c0-0.036,0.027-0.065,0.066-0.065C97.789,28.693,97.818,28.722,97.818,28.759z"/>
													<path fill="#2C1712" d="M97.251,28.827c0,0.086-0.054,0.156-0.122,0.156c-0.069,0-0.124-0.07-0.124-0.156
														c0-0.085,0.055-0.155,0.124-0.155C97.197,28.672,97.251,28.742,97.251,28.827z"/>
													<path fill="#FFFFFF" d="M97.077,28.867c0,0.017-0.014,0.029-0.03,0.029c-0.013,0-0.027-0.013-0.027-0.029
														c0-0.014,0.014-0.026,0.027-0.026C97.063,28.84,97.077,28.853,97.077,28.867z"/>
													<path fill="#FFFFFF" d="M97.199,28.759c0,0.037-0.03,0.067-0.067,0.067c-0.039,0-0.066-0.03-0.066-0.067
														c0-0.036,0.027-0.065,0.066-0.065C97.169,28.693,97.199,28.722,97.199,28.759z"/>
												</g>
											</g>
										</g>
									</g>
								</g>
							</g>
						</g>
					</g>
				</g>
			</g>
		</g>
	</g>
	<path fill="#B5B3B4" d="M95.541,30.578v-3.911h3.931v3.911H95.541L95.541,30.578z M99.368,26.771h-3.723v3.702h3.723V26.771z"/>
	<g>
		<g>
			<g>
				<g>
					<g>
						<g>
							<ellipse opacity="0.1" enable-background="new    " cx="47.951" cy="118.146" rx="18.033" ry="2.186"/>
							<g>
								<path fill="#F8C18C" d="M39.285,69.323c-1.658,1.224-2.852,1.882-3.966,0.872c-0.519-0.89-1.627-4.984-0.117-5.408
									l0.875-0.062c0.333-0.014,1.32,0.946,1.869,1.679C37.945,66.404,38.8,67.827,39.285,69.323z"/>
								<path fill="#F8C18C" d="M36.415,68.036c0.088-0.231-0.244-0.781-0.618-0.915l0,0c-0.375-0.137-1.025,0.611-0.991,1.152
									l0.435,2.263l0.197,1.8c0.142,0.861,0.425,1.087,0.8,1.223l0,0c0.375,0.133,1.067-0.063,0.913-0.906l-0.341-2.325
									L36.415,68.036z"/>
								<g>
									<path fill="#F8C18C" d="M36.549,65.047c-0.318-0.746-0.85-1.911-1.425-3.283l-2.069,1.008
										c0.573,1.36,1.108,2.618,1.331,3.34c0.177,0.563,0.433,0.884,0.443,0.902c0.244,0.507,0.518-0.287,1.082-0.529
										C36.493,66.234,36.779,65.592,36.549,65.047z"/>
								</g>
								<path fill="#F8C18C" d="M37.174,69.93c-0.269-0.623-0.837-1.016-1.262-0.874l0,0c-0.429,0.14-0.556,0.759-0.286,1.386
									l1.477,3.073c0.272,0.627,0.743,0.959,1.172,0.821l0,0c0.428-0.144,0.649-0.709,0.377-1.331L37.174,69.93z"/>
								<path fill="#F8C18C" d="M37.248,67.357c-0.381-0.55-0.528,1.283-0.918,1.517l0,0c-0.392,0.229-0.039,0.402,0.341,0.958
									l1.658,3.147c0.38,0.555,0.903,0.774,1.296,0.541l0,0c0.393-0.229,0.505-0.834,0.124-1.38L37.248,67.357z"/>
								<g>
									<path fill="#FFFFFF" d="M36.983,64.946c-0.486-1.361-1.351-3.26-2.011-5.443l-3,0.941c0.729,2.407,1.693,4.437,2.107,5.699
										C35.052,65.758,36.02,65.358,36.983,64.946z"/>
								</g>
								<g>
									<path fill="#24292B" d="M44.795,35.076l0.178,0.223c0.261,0.45,0.009,1.372-0.511,1.874c0,0-0.016,0.016-0.051,0.055
										c-0.038,0.038-0.093,0.093-0.168,0.166c-0.148,0.146-0.363,0.369-0.633,0.651c-0.534,0.567-1.178,2.146-2.022,3.148
										c-1.688,2.002-3.522,3.99-4.993,6.869c-0.981,1.912-1.649,3.52-1.853,5.273c-0.143,1.179,0.152,2.575,0.445,4.438
										c0.194,1.22,1.268,4.719,1.564,5.397c-0.923,0.445-3.309,1.184-4.241,1.616c-0.157-0.113-1.569-5.147-1.853-6.96
										c-0.32-2.063-0.523-4.221-0.325-5.919c0.278-2.321,1.523-4.965,2.597-7.068c1.076-2.097,2.326-3.533,3.604-5.234
										c2.556-3.397,4.528-4.172,6.03-5.073C43.184,34.155,43.703,34.024,44.795,35.076z"/>
								</g>
								<g>
									<path fill="#EFEFED" d="M35.319,117.397c-0.141-1.08,0.14-2.835,0.221-3.606l3.249,0.311
										c4.404,0.31,9.375-0.313,11.526,2.024c0.3,0.324,0.37,1.341,0.348,1.704L35.319,117.397z"/>
									<path fill="#24292B" d="M35.313,116.411c-0.142-1.081,0.208-2.788,0.289-3.564l3.199,0.051
										c5.039,0.356,10.625,0.289,11.656,3.824L35.313,116.411z"/>
									<path fill="#EFEFED" d="M42.896,114.453l1.103-1.274l1.006,0.188c-0.046,0-0.741,0.765-1.238,1.285
										C43.477,114.583,43.184,114.513,42.896,114.453z"/>
									<path fill="#EFEFED" d="M41.747,114.408c-0.308-0.072-0.61-0.135-0.903-0.209l1.05-1.144l1.002,0.088
										C42.847,113.147,42.184,113.904,41.747,114.408z"/>
									<path fill="#EFEFED" d="M38.879,113.92l0.912-1.008l1.087,0.098c-0.051,0.007-0.671,0.678-1.087,1.135
										C39.487,114.07,39.184,113.992,38.879,113.92z"/>
								</g>
								<g>
									<path fill="#FFFFFF" d="M42.896,117.778c-0.144-1.042,0.229-2.718,0.303-3.458l3.168,0.328
										c4.258,0.285,9.122-0.27,11.213,1.972c0.288,0.316,0.299,1.227,0.28,1.575L42.896,117.778z"/>
									<path fill="#24292B" d="M42.86,116.823c-0.148-1.04,0.073-2.415,0.153-3.167l3.248-0.166
										c4.982,0.33,10.507,0.25,11.539,3.643L42.86,116.823z"/>
									<path fill="#FFFFFF" d="M50.315,114.97l1.082-1.227l0.996,0.176c-0.045,0.006-0.729,0.74-1.218,1.241
										C50.891,115.095,50.603,115.029,50.315,114.97z"/>
									<path fill="#FFFFFF" d="M49.18,114.929c-0.304-0.063-0.6-0.125-0.892-0.195l1.031-1.104l0.994,0.084
										C50.259,113.715,49.609,114.447,49.18,114.929z"/>
									<path fill="#FFFFFF" d="M46.344,114.465l0.894-0.967l1.076,0.092c-0.05,0-0.659,0.65-1.07,1.096
										C46.944,114.615,46.645,114.542,46.344,114.465z"/>
								</g>
								<g>
									<g>
										<g>
											<g>
												<path fill="#E7A172" d="M49.839,31.843l1.13-4.083c0.961,0.423,1.915,0.849,2.875,1.243
													c0.35,0.145,0.699,0.286,1.046,0.431l-0.857,4.551C54.033,33.984,51.039,32.605,49.839,31.843z"/>
												<path fill="#F8C18C" d="M63.911,25.751l-0.395-8.45c-0.148-4.111-3.599-7.321-7.708-7.175
													c-4.112,0.146-7.324,3.597-7.175,7.708l0.401,6.633c0.68,6.72,8.577,9.058,8.577,9.058
													c2.451,0.272,4.017-0.371,5.001-2.237C63.689,29.262,63.812,26.804,63.911,25.751z"/>
												<path fill="#F8C18C" d="M63.446,22.266c0,0-0.015,2.526,2.684,3.713c0.698,0.306-1.079,1.997-3.308,0.891
													C60.594,25.767,62.949,21.153,63.446,22.266z"/>
												<path fill="#F5AD7C" d="M49.034,24.467l-0.401-6.633c-0.148-4.11,3.063-7.562,7.175-7.708
													c3.989-0.145,7.356,2.877,7.685,6.812c-0.291-0.04-0.587-0.055-0.866-0.01c-0.893,0.15-1.745,0.259-2.517,0.718
													c-1.014,0.598-2.073,1.391-2.751,2.397c-1.296,1.915-1.656,4.355-1.526,6.632c0.095,1.729,0.523,3.777,1.717,5.102
													c0.049,0.058,0.102,0.106,0.15,0.162c0.032,0.044,0.065,0.095,0.094,0.141c0.381,0.564,1.455,1.311,1.964,1.399
													c-0.601,0.146-1.581,0.118-2.104,0.049C57.654,33.526,49.707,31.734,49.034,24.467z"/>
												<path fill="#8D5931" d="M44.48,17.575c0.788-2.573,3.064-5.871,4.264-6.75c2.605-1.905,7.625-2.543,13.42,0.45
													c0,0-0.516,1.714-1.808,3.821c-2.317,0.369-4.666,2.688-5.324,7.995c-0.575-0.177-2.56-1.154-2.751-0.824
													c-0.342,0.588-1.083,5.314-1.473,7.582c-0.089,0.503-1.128-0.056-1.284-0.33C47.444,25.788,44.19,19.804,44.48,17.575z"
													/>
												<path fill="#6A3819" d="M44.48,17.575c0.788-2.573,3.064-5.871,4.264-6.75c1.443-1.056,3.63-1.719,6.275-1.594
													c-1.037,0.274-2.04,0.748-2.941,1.375c-2.613,1.801-4.772,4.983-4.042,8.288c0.385,1.75,1.115,3.281,1.871,4.893
													c0.455,0.966,0.938,1.913,1.443,2.855c-0.201,1.185-0.395,2.364-0.541,3.208c-0.089,0.503-1.128-0.056-1.284-0.33
													C47.444,25.788,44.19,19.804,44.48,17.575z"/>
												<path fill="#8D5931" d="M56.129,10.283c1.567,0.044,6.911,0.91,7.801,1.004c0.254,0,2.268,0.2,3.485-0.683
													c0.047,0.544-0.331,1.522-0.437,2.039c0.531-0.176,1.24-1.142,1.572-1.527c0.032,0.505-0.165,1.881-0.365,2.666
													c-0.514,2.024-2.272,3.509-2.986,3.675c-0.65,0.152-2.888-0.576-3.549-0.757c-1.971-0.54-8.484-3.562-8.484-3.562
													C52.391,13.13,53.471,10.213,56.129,10.283z"/>
												<path fill="#6A3819" d="M62.065,15.251c-1.038,0.145-2.624,0.104-4.481-0.121c1.351,0.575,3.367,1.377,4.066,1.569
													c0.661,0.181,2.899,0.909,3.549,0.757c0.582-0.134,1.853-1.146,2.584-2.606C65.663,14.696,64.286,15.196,62.065,15.251z
													"/>
												<path fill="#F5AD7C" d="M53.91,23.092c-0.08,1.292,0.153,2.563-0.96,2.714c-1.114,0.146-2.089-0.816-2.31-2.463
													c-0.217-1.645,0.507-3.102,1.616-3.251C53.369,19.945,54.005,21.485,53.91,23.092z"/>
												<path fill="#743A31" d="M62.236,23.82c0.055,0.583,0.354,0.924,0.667,0.76c0.314-0.163,0.527-0.766,0.47-1.344
													c-0.058-0.585-0.354-0.925-0.671-0.761C62.389,22.635,62.178,23.242,62.236,23.82z"/>
												<path fill="#010101" d="M63.116,23.578c-0.042,0.225-0.173,0.39-0.293,0.367c-0.12-0.022-0.184-0.223-0.143-0.445
													c0.043-0.224,0.173-0.386,0.294-0.361C63.093,23.16,63.159,23.356,63.116,23.578z"/>
												<path fill="#FFFFFF" d="M63.175,23.976c-0.025,0.146-0.114,0.253-0.194,0.236c-0.078-0.013-0.12-0.144-0.09-0.29
													c0.027-0.146,0.111-0.251,0.188-0.239C63.157,23.699,63.203,23.827,63.175,23.976z"/>
												<path fill="#FFFFFF" d="M63.024,23.19c-0.037,0.195-0.159,0.346-0.27,0.319c-0.106-0.016-0.162-0.195-0.124-0.396
													c0.037-0.206,0.154-0.35,0.262-0.333C63.001,22.804,63.062,22.98,63.024,23.19z"/>
												<path fill="#FFFFFF" d="M63.067,30.288c-0.823-0.315-1.092-1.66-0.976-2.768c0.416,0.216,0.99,0.572,1.51,0.757
													C63.515,28.934,63.217,29.807,63.067,30.288z"/>
												<path fill="#FFFFFF" d="M55.255,33.34c0,0,1.072,2.45,0.963,2.385c-0.11-0.063-9.061-2.438-9.061-2.438l1.376-1.949
													L55.255,33.34z"/>
											</g>
										</g>
										<path fill="#7B3C23" d="M63.269,19.217l0.127,0.685c-0.111-0.082-0.409-0.24-0.953-0.1
											c-0.427,0.095-0.863,0.332-1.439,0.645c0-0.005,0.001,0.001,0,0C62.01,19.214,63.243,19.216,63.269,19.217z"/>
									</g>
								</g>
								<path fill="#24292B" d="M46.208,65.278c0,0-1.162,15.438-1.964,22.5c-0.8,7.069-3.682,25.307-3.682,25.307l-4.824,0.14
									c0,0,3.879-24.499,4.025-27.119c0.146-2.626-0.364-19.598-0.364-19.598"/>
								<path fill="#2A3941" d="M51.575,67.652c0,0,0.527,13.197-0.273,20.262c-0.801,7.067-3.955,26.254-3.955,26.254l-5.107-0.59
									c0,0,4.127-24.716,4.273-27.338c0.145-2.622-2.063-21.137-2.063-21.137"/>
								<path fill="#2A3941" d="M39.617,73.897l7.871,0.963l3.288-10.275L38.339,64.11c0,0-0.553,5.328-0.179,6.811
									C38.907,73.848,39.617,73.897,39.617,73.897z"/>
								<path fill="#24292B" d="M51.767,68.559c-0.004-2.465,0.141-7.356,1.181-12.177c0.958-4.444,6.977-18.085,6.51-18.773
									c0,0-4.562-3.51-7.377-4.28c-3.949-1.08-9.178,0.641-9.424,1.185c-0.354,0.776-2.978,5.346-5.137,17.086
									c-1.461,7.938-1.776,12.997-1.843,15.131C41.038,67.361,46.4,67.995,51.767,68.559z"/>
							</g>
						</g>
					</g>
				</g>
				<g>
					<path fill="#24292B" d="M74.798,37.141c-0.719,0.743,0.504-0.329-0.322,0.428c-1.007,0.927-2.984,2.671-3.967,3.327
						c-0.988,0.661-1.436,0.878-2.146,0.965c-1.055,0.145-1.224-0.04-2.576-0.643c-1.916-0.846-8.954-5.897-8.868-4.876
						c-0.138,1.799-0.913,3.912-1.18,5.678c0.274,0.195,0.659,0.32,0.965,0.538c1.309,0.938,7.08,3.395,8.563,4.055
						c1.484,0.652,2.216,0.444,3.613,0.263c1.023-0.14,2.168-0.834,3.264-1.563c1.635-1.087,2.896-2.295,4.357-3.745
						c0.385-0.381,0.978-1.021,1.498-1.609C77.508,38.986,75.264,38.137,74.798,37.141z"/>
					<g>
						<g>
							<path fill="#F8C18C" d="M76.91,34.438c0.22-0.189,0.616-0.419,0.822-0.538c0.199-0.186,0.426-0.265,0.569-0.354
								c0.146-0.098,0.423-0.225,0.61-0.309c0.127-0.084,0.254-0.146,0.329-0.182c0.155-0.081,0.881-0.213,1.181-0.263
								c-0.274-0.27-0.339-0.603-0.158-0.803c0.158-0.168,0.951-0.106,1.442-0.046c0.103,0.012,0.808,0.269,0.808,0.269
								l-5.762,3.534C76.433,35.007,76.603,34.702,76.91,34.438z"/>
							<path fill="#F8BC73" d="M80.378,31.93c0.018,0.034,0.043,0.072,0.075,0.097c0.069,0.062,0.385,0.083,0.449,0.062
								c0.057-0.019,0.187-0.11,0.26-0.197c-0.005,0-0.009,0-0.012,0c-0.033-0.004-0.063-0.008-0.088-0.009
								c-0.282-0.034-0.501-0.026-0.647,0.031c0,0.001-0.002,0.001-0.002,0.001C80.401,31.92,80.388,31.924,80.378,31.93z"/>
							<path opacity="0.1" enable-background="new    " d="M77.285,34.874c-0.243,0.16-0.462,0.325-0.664,0.49
								c0.01,0.04,0.025,0.083,0.038,0.13c0.494-0.41,1.105-0.813,1.821-1.083c0,0,0.575-0.348,1.228-0.93
								c0.077-0.067,0.82-0.737,0.872-0.792c0.125-0.132,0.561-0.544,0.872-0.772c-0.063-0.006-0.126-0.011-0.188-0.016
								c-0.339,0.263-0.723,0.644-0.774,0.7c-0.012,0.013-0.061,0.058-0.133,0.124c0.022,0.023,0.042,0.045,0.066,0.067
								c-0.049,0.006-0.107,0.021-0.175,0.032c-0.231,0.208-0.554,0.5-0.624,0.563c-0.451,0.398-0.867,0.688-1.072,0.827
								c-0.022-0.146-0.041-0.303-0.044-0.437c-0.008-0.222,0.2-0.407,0.405-0.54c-0.11,0.051-0.254,0.119-0.386,0.183
								c-0.089,0.116-0.135,0.235-0.132,0.361c0.003,0.155,0.029,0.337,0.055,0.504c-0.009,0.004-0.018,0.007-0.021,0.014
								c-0.377,0.141-0.723,0.318-1.035,0.512c-0.015-0.123-0.01-0.247,0.028-0.377c0.073-0.245,0.188-0.411,0.313-0.532
								c-0.075,0.043-0.168,0.099-0.273,0.159c-0.061,0.104-0.11,0.216-0.147,0.339C77.265,34.566,77.26,34.726,77.285,34.874z"/>
							<g>
								<path fill="#F8C18C" d="M82.438,32.575l-7.198,4.467l2.948,2.717c0,0,3.43-2.68,3.797-3.126
									c0.366-0.448,1.208-3.383,1.179-3.79c-0.005-0.104-0.046-0.208-0.111-0.302c-0.064-0.088-0.15-0.156-0.25-0.202
									l-0.735-0.328L82.438,32.575z"/>
								<path opacity="0.1" enable-background="new    " d="M80.134,36.191c0,0,0.704-0.084,1.3-0.816
									c0.592-0.729,0.73-1.327,0.68-1.697c-0.053-0.368-2.917,0.384-2.651,1.646C79.615,36.046,80.134,36.191,80.134,36.191z"/>
								<path opacity="0.1" enable-background="new    " d="M80.735,34.851c-0.026,0.032-0.047,0.068-0.076,0.103
									c0.139,0.117,0.26,0.222,0.282,0.244c0.23,0.219,0.396,0.485,0.596,0.723C81.343,35.523,81.063,35.161,80.735,34.851z"/>
								<path fill="#F8BC73" d="M81.515,34.075c-0.012,0.01-0.024,0.02-0.036,0.027c0.114,0.099,0.229,0.188,0.347,0.282
									c-0.066-0.062-0.124-0.128-0.185-0.184C81.6,34.162,81.558,34.117,81.515,34.075z"/>
								<path opacity="0.1" enable-background="new    " d="M82.467,32.951c-0.003,0.003-0.006,0.011-0.012,0.015l-0.514,0.496
									c-0.101,0.109-0.43,0.465-0.506,0.538c-0.18,0.165-0.359,0.364-0.537,0.604C80.897,34.6,80.897,34.6,80.897,34.6
									c-0.286,0.388-0.567,0.886-0.819,1.547c-0.004,0.017-0.011,0.029-0.016,0.045l-0.071,0.347
									c0.076-0.089,0.135-0.196,0.176-0.306c0.267-0.712,0.521-1.196,0.824-1.568c0.057-0.066,0.112-0.132,0.173-0.192l0,0
									c0.11-0.134,0.232-0.261,0.359-0.376c0.06-0.062,0.253-0.268,0.409-0.437l0,0c0.035-0.036,0.073-0.075,0.102-0.104
									c0,0,0.521-0.51,0.525-0.516c0.093-0.091,0.16-0.198,0.203-0.321c0.05-0.158-0.027-0.406-0.027-0.406l-0.079-0.034
									C82.713,32.51,82.651,32.77,82.467,32.951z"/>
							</g>
						</g>
						<g>
							<g>
								<g>
									<path fill="#FFFFFF" d="M84.778,26.808l2.693,3.187c0.073,0.086,0.063,0.214-0.021,0.289l-5.246,4.426
										c-0.086,0.073-0.216,0.063-0.288-0.024l-2.693-3.189c-0.07-0.086-0.061-0.213,0.023-0.286l5.245-4.426
										C84.578,26.712,84.705,26.721,84.778,26.808z"/>
								</g>
							</g>
						</g>
						<g>
							<g>
								<defs>
									<path id="SVGID_14_" d="M84.778,26.808l2.693,3.187c0.073,0.086,0.063,0.214-0.021,0.289l-5.246,4.426
										c-0.086,0.073-0.216,0.063-0.288-0.024l-2.693-3.189c-0.07-0.086-0.061-0.213,0.023-0.286l5.245-4.426
										C84.578,26.712,84.705,26.721,84.778,26.808z"/>
								</defs>
								<clipPath id="SVGID_15_">
									<use xlink:href="#SVGID_14_"  overflow="visible"/>
								</clipPath>
								<circle clip-path="url(#SVGID_15_)" fill="#435F88" cx="86.319" cy="28.292" r="4.561"/>
							</g>
							<g>
								<defs>
									<path id="SVGID_16_" d="M84.778,26.808l2.693,3.187c0.073,0.086,0.063,0.214-0.021,0.289l-5.246,4.426
										c-0.086,0.073-0.216,0.063-0.288-0.024l-2.693-3.189c-0.07-0.086-0.061-0.213,0.023-0.286l5.245-4.426
										C84.578,26.712,84.705,26.721,84.778,26.808z"/>
								</defs>
								<clipPath id="SVGID_17_">
									<use xlink:href="#SVGID_16_"  overflow="visible"/>
								</clipPath>
								<g clip-path="url(#SVGID_17_)">
									<circle fill="#4BB6B5" cx="82.672" cy="31.154" r="0.659"/>
									<g>
										<circle fill="#FFFFFF" cx="82.537" cy="31.306" r="0.071"/>
										<g>
											<path fill="#FFFFFF" d="M82.751,31.114c-0.093-0.099-0.208-0.075-0.211-0.075c-0.029,0.006-0.047,0.034-0.042,0.062
												c0.003,0.012,0.008,0.021,0.013,0.025c0.012,0.015,0.033,0.021,0.051,0.017c0,0,0.061-0.012,0.109,0.042
												c0.047,0.053,0.032,0.111,0.032,0.113c-0.008,0.018-0.003,0.038,0.009,0.053c0.005,0.006,0.013,0.009,0.023,0.016
												c0.028,0.008,0.055-0.006,0.066-0.034C82.805,31.327,82.84,31.214,82.751,31.114z"/>
											<path fill="#FFFFFF" d="M82.919,30.963c-0.16-0.179-0.361-0.138-0.369-0.136c-0.029,0.007-0.047,0.034-0.042,0.063
												c0.002,0.012,0.007,0.018,0.012,0.026c0.013,0.013,0.033,0.02,0.052,0.014c0.005,0,0.151-0.027,0.268,0.103
												c0.116,0.131,0.074,0.271,0.071,0.278c-0.007,0.019,0,0.037,0.011,0.052c0.008,0.005,0.014,0.01,0.023,0.014
												c0.028,0.012,0.057-0.006,0.067-0.034C83.015,31.336,83.079,31.14,82.919,30.963z"/>
										</g>
									</g>
								</g>
							</g>
							<g>
								<defs>
									<path id="SVGID_18_" d="M84.778,26.808l2.693,3.187c0.073,0.086,0.063,0.214-0.021,0.289l-5.246,4.426
										c-0.086,0.073-0.216,0.063-0.288-0.024l-2.693-3.189c-0.07-0.086-0.061-0.213,0.023-0.286l5.245-4.426
										C84.578,26.712,84.705,26.721,84.778,26.808z"/>
								</defs>
								<clipPath id="SVGID_19_">
									<use xlink:href="#SVGID_18_"  overflow="visible"/>
								</clipPath>
								<g clip-path="url(#SVGID_19_)">
									<g>
										<g>
											<path fill="#FFFFFF" d="M84.876,28.681l0.033,0.117c0.133,0.499,0.033,0.951-0.017,1.12
												c-0.114,0.009-0.227,0.014-0.341,0.002c-0.002,0.081,0,0.183,0,0.246c0.147,0.009,0.297,0.006,0.449-0.014
												c0.023-0.003,0.045-0.013,0.063-0.028c0.016-0.013,0.028-0.028,0.035-0.049c0.01-0.025,0.237-0.631,0.045-1.341
												l-0.032-0.118L84.876,28.681z"/>
											<g>
												<path fill="#4BB6B5" d="M83.452,29.532c-0.109-0.08-0.191-0.155-0.244-0.21l-0.186,0.16
													c0.059,0.062,0.155,0.15,0.284,0.246c0.166,0.121,0.391,0.249,0.672,0.338c0.003-0.106,0.009-0.196,0.014-0.253
													C83.769,29.733,83.589,29.631,83.452,29.532z"/>
												<path fill="#4BB6B5" d="M84.583,27.647l-1.86,1.566c-0.05,0.044-0.058,0.121-0.014,0.172
													c0.043,0.053,0.121,0.059,0.173,0.019l1.615-1.367c0.009,0.01,0.017,0.018,0.021,0.021
													c0.07,0.085,0.131,0.169,0.183,0.254c0.042,0.07,0.08,0.142,0.112,0.214l0.238-0.073
													c-0.044-0.1-0.098-0.199-0.161-0.301c-0.054-0.086-0.116-0.171-0.188-0.255c-0.001-0.002-0.01-0.01-0.018-0.021
													l0.059-0.046c0.05-0.043,0.056-0.122,0.013-0.172C84.712,27.607,84.636,27.604,84.583,27.647z"/>
											</g>
											<path fill="#4BB6B5" d="M86.119,29.969l0.189-0.156c-0.199-0.211-0.415-0.359-0.628-0.459
												c-0.098-0.047-0.194-0.084-0.285-0.111c0.009,0.092,0.013,0.18,0.013,0.267c0.08,0.028,0.16,0.064,0.241,0.105
												C85.811,29.701,85.97,29.818,86.119,29.969z"/>
										</g>
										<path opacity="0.3" fill="#16293B" enable-background="new    " d="M85.68,29.354c-0.098-0.047-0.194-0.084-0.285-0.111
											c0.009,0.092,0.013,0.18,0.013,0.267c0.08,0.028,0.16,0.064,0.241,0.105C85.664,29.533,85.674,29.444,85.68,29.354z"/>
									</g>
									<path fill="#4BB6B5" d="M86.468,29.882l-1.635,1.376c-0.021-0.025-0.051-0.063-0.051-0.063l0.001,0.002
										c-0.136-0.176-0.583-0.853-0.332-1.804c0.067-0.006,0.182-0.016,0.323-0.009c0.002-0.078,0-0.16-0.008-0.247
										c-0.248-0.007-0.419,0.023-0.435,0.027c-0.003,0-0.006,0.001-0.008,0.001c-0.003,0.001-0.008,0.001-0.013,0.003
										c-0.003,0.001-0.006,0.004-0.009,0.004c-0.005,0.003-0.007,0.005-0.01,0.007c-0.003,0.003-0.007,0.005-0.011,0.007
										c-0.002,0.001-0.006,0.005-0.007,0.007c-0.004,0.003-0.008,0.005-0.011,0.007c-0.002,0.003-0.004,0.006-0.008,0.009
										c-0.001,0.004-0.002,0.01-0.004,0.01c-0.002,0.004-0.004,0.009-0.006,0.011c-0.003,0.005-0.003,0.008-0.004,0.012
										c-0.003,0.002-0.003,0.005-0.003,0.007c-0.377,1.263,0.368,2.116,0.398,2.151c0.004,0.007,0.008,0.01,0.01,0.014
										l-0.038,0.034c-0.053,0.045-0.058,0.119-0.015,0.171c0.043,0.051,0.119,0.058,0.173,0.015l1.859-1.566
										c0.051-0.044,0.058-0.121,0.015-0.17C86.597,29.844,86.52,29.837,86.468,29.882z"/>
								</g>
							</g>
						</g>
						<g>
							<g>
								<path fill="#F8C18C" d="M75.24,37.042c0,0,4.25,0.686,4.822-0.851c0.41-1.095,0.893-1.739,1.374-2.191
									c0.076-0.073,0.405-0.429,0.506-0.538l0.514-0.496c0.006-0.003,0.009-0.011,0.012-0.015
									c0.275-0.278,0.282-0.725,0.006-1.005c-0.205-0.218-0.513-0.266-0.78-0.175c-0.248,0.082-0.951,0.743-1.115,0.917
									c-0.052,0.055-0.795,0.726-0.872,0.792c-0.653,0.582-1.228,0.93-1.228,0.93C76.43,35.18,75.24,37.042,75.24,37.042z"/>
								<g>
									<path fill="#F5E1CA" d="M81.456,32.799c-0.078-0.135-0.124-0.409,0.299-0.874c0,0,0.312-0.122,0.584,0.136
										c0.277,0.266,0.164,0.578,0.164,0.578c-0.516,0.521-0.809,0.386-0.913,0.302C81.562,32.917,81.499,32.863,81.456,32.799z"
										/>
									<path opacity="0.7" fill="#FFFFFF" enable-background="new    " d="M81.409,32.572c-0.007,0.099,0.021,0.176,0.046,0.227
										c0.028,0.043,0.059,0.076,0.088,0.101l0,0v0.002l0,0l0,0c0.02,0.016,0.036,0.029,0.046,0.04
										c0.051,0.043,0.146,0.094,0.291,0.077c-0.053-0.08-0.126-0.166-0.215-0.248C81.58,32.688,81.491,32.619,81.409,32.572z"/>
									<path opacity="0.7" fill="#FFFFFF" enable-background="new    " d="M82.503,32.639c0,0,0.113-0.313-0.164-0.578
										c-0.272-0.257-0.584-0.136-0.584-0.136c-0.009,0.015-0.02,0.025-0.031,0.035c0.025-0.009,0.333-0.129,0.599,0.121
										c0.261,0.249,0.162,0.557,0.154,0.588C82.484,32.658,82.495,32.653,82.503,32.639z"/>
								</g>
								<path opacity="0.1" enable-background="new    " d="M81.938,31.754c-0.246,0.08-0.953,0.744-1.118,0.917
									c-0.049,0.057-0.792,0.726-0.87,0.792c-0.372,0.333-0.721,0.589-0.954,0.75c-0.468,0.32-1.185,0.618-1.564,0.904
									c-0.006,0.001-0.012,0.008-0.017,0.013c-0.864,0.658-1.062,1.881-0.458,2.78c0.663,0.979,1.455,1.909,1.455,1.909
									l-3.172-2.777c0,0,1.19-1.862,3.24-2.632c0,0,0.575-0.348,1.228-0.93c0.077-0.067,0.82-0.737,0.872-0.792
									c0.164-0.174,0.867-0.835,1.115-0.917c0.105-0.036,0.22-0.05,0.328-0.04C81.992,31.737,81.966,31.746,81.938,31.754z"/>
							</g>
							<g>
								
									<rect x="76.241" y="36.317" transform="matrix(-0.7033 0.7109 -0.7109 -0.7033 157.8449 11.1621)" fill="#E5E6E7" width="0.703" height="4.41"/>
								
									<rect x="77.024" y="38.191" transform="matrix(-0.704 0.7102 -0.7102 -0.704 159.7578 12.0025)" fill="#FFFFFF" width="0.708" height="2.206"/>
							</g>
						</g>
					</g>
				</g>
			</g>
		</g>
	</g>
</g>
</svg>
