<?xml version="1.0" encoding="utf-8"?>
<!-- Generator: Adobe Illustrator 15.0.0, SVG Export Plug-In . SVG Version: 6.00 Build 0)  -->
<!DOCTYPE svg PUBLIC "-//W3C//DTD SVG 1.1//EN" "http://www.w3.org/Graphics/SVG/1.1/DTD/svg11.dtd">
<svg version="1.1" id="Calque_1" xmlns="http://www.w3.org/2000/svg" xmlns:xlink="http://www.w3.org/1999/xlink" x="0px" y="0px"
	 width="433.443px" height="334.07px" viewBox="0 0 433.443 334.07" enable-background="new 0 0 433.443 334.07"
	 xml:space="preserve">
<g>
	<path opacity="0.1" enable-background="new    " d="M415.781,311.664c0,4.061-86.175,7.354-192.479,7.354
		c-106.304,0-192.479-3.293-192.479-7.354c0-4.063,86.175-7.355,192.479-7.355C329.606,304.309,415.781,307.602,415.781,311.664z"/>
	<g>
		<polygon fill="#7C695B" points="233.047,225.99 212.784,311.676 215.843,311.676 241.076,227.344 		"/>
		<polygon fill="#3F362D" points="254.491,226.471 259.669,311.676 262.313,311.676 262.313,227.021 		"/>
		<polygon fill="#3F362D" points="301.483,226.119 321.924,311.676 318.741,311.676 293.453,227.541 		"/>
		<polygon fill="#7C695B" points="285.043,225.738 294.983,311.676 291.927,311.676 277.015,226.523 		"/>
		<path fill="#425284" d="M210.841,216.902c0.122-0.172,0.263-0.34,0.429-0.508c2.415-2.441,6.413-2.172,9.446-3.082
			c10.536-3.174,20.752-10.719,26.337-20.891c3.216-5.859,4.919-12.662,5.492-19.41c3.447-40.635,32.025-63.821,63.811-54.487
			c32.407,9.515,23.715,100.663-20.695,110.36c-16.264,3.551-33.007,5.131-49.57,3.799c-10.799-0.867-23.267-2.477-32.459-9.234
			C211.596,221.951,209.147,219.287,210.841,216.902z"/>
	</g>
	<g>
		<g>
			<path fill="#BDBFC1" d="M253.176,96.961c0,0,6.721,7.13,4.163,23.559c-2.559,16.428-5.559,33.118-8.509,34.618
				c-6.198,3.154-38.718-0.623-38.718-0.623s-4.621-7.242,0.79-12.866h26.391C237.293,141.649,241.956,102.405,253.176,96.961z"/>
			<path fill="#FAA284" d="M210.913,143.532c0,0,1.229,1.659,1.219,5.104c-0.007,2.505-0.686,4.927-1.265,5.148
				c0,0-3.725,0.899-8.951,0.654c-5.228-0.248-5.25-0.502-6.824,0.055c-1.575,0.558-2.695,3.087-4.558,3.688
				c-3.49,1.123-7.728-2.354-7.728-2.354s4.044-5.001,9.504-8.1C197.77,144.626,210.913,143.532,210.913,143.532z"/>
		</g>
		<g>
			<path fill="#353B42" d="M239.194,283.326c0,0-7.851,28.35-4.966,28.783h15.685c0,0,2.342,0.791-0.2-28.209l-5.714-0.682
				L239.194,283.326z"/>
			<path fill="#FAA284" d="M239.194,283.143l-2.616,21.463c1.363,0.287,8.604-1.135,11.314,0.865c0,0,1.656-9.83,1.82-22.305
				l-4.85-6.492L239.194,283.143z"/>
		</g>
		<g>
			<path fill="#353B42" d="M221.86,282.711c-3.568,10.23-12.794,21.461-12.794,21.461l-8.035,0.92l-8.048,1.969
				c0,0-2.015,2.021-0.25,5.049h20.449l6.991-17.422l-0.476,17.422h2.136l4.36-21.598
				C226.193,290.512,225.755,285.369,221.86,282.711z"/>
			<path fill="#FAA284" d="M221.86,282.684l-5.137-4.672l-5.779,4.666c0,0-6.235,19.818-9.913,22.414l7.347-0.053
				C208.378,305.039,218.292,292.914,221.86,282.684z"/>
		</g>
		<g>
			<path fill="#353B42" d="M193.485,201.158c5.563-9.627,21.448-13.139,57.212-17.82l2.434-11.045
				c16.032,3.977,23.299,42.115,2.386,45.457c-12.47,1.994-29.245-1.428-39.285-1.232c3.672,10.588,6.711,39.348,7.793,66.172
				h-14.678C209.346,282.689,187.177,209.596,193.485,201.158z"/>
			<path fill="#3F464F" d="M223.159,207.455c0.262-0.086-3.324-14.783,38.786-18.027c-4.313-3.932-6.627-10.895-8.814-17.084
				l2.21-10.409l37.895,0.502c0,0,3.091,4.152,9.667,26.5c0.179,0.322,0.288,0.682,0.318,1.084c0,0,7.619,32.811-26.658,31.529
				c-9.312,0.307-21.455-3.27-28.75-3.064c2.173,12.232,3.083,25.74,3.516,65.166l-13.714-0.045
				C237.615,283.607,220.991,213.729,223.159,207.455z"/>
			<path fill="#353B42" d="M261.945,189.428l15.51-3.828c0,0-16.584,3.246-21.668-2.98
				C255.787,182.619,255.707,189.066,261.945,189.428z"/>
		</g>
		<g>
			<path fill="#E8EBEF" d="M288.44,94.067c0,0-7.812-1.755-12.137-1.802c-4.327-0.048-10.915,1.546-10.915,1.546
				c-8.244,1.31-12.218,3.099-12.218,3.099l-1.718,11.932c-6.784,8.68-7.156,11.544-7.156,15.385c0,6.65,5.888,11.591,5.888,11.591
				l5.155,26.116c22.558,8.769,37.79,0.502,37.79,0.502c2.503-17.044,8.987-38.891,8.987-38.891V98.218
				C298.655,96.635,291.958,95.083,288.44,94.067z"/>
			<path opacity="0.1" enable-background="new    " d="M302.117,110.167l-9.773,3.115l-13.535,26.103l-27.538,1.979l3.916,19.819
				c8.798,0.678,26.865,1.621,38.275-0.897c2.701-16.671,8.655-36.739,8.655-36.739V110.167L302.117,110.167z"/>
			<path fill="#B8BBBF" d="M267.14,108.453l6.563-6.129l3.431,7.571c0,0,10.566-6.17,11.354-15.833
				c-0.473-0.104-7.962-1.75-12.149-1.797c-4.325-0.047-10.932,1.546-10.932,1.546c-0.082,0.021-0.161,0.043-0.241,0.064
				C264.871,96.698,264.646,102.777,267.14,108.453z"/>
			<g>
				<path fill="#FAA284" d="M270.554,88.801l-0.042,10.708l13.102,0.052l0.056-13.93C278.222,89.191,272.791,89.09,270.554,88.801z"
					/>
				<path fill="#EF8D72" d="M283.669,85.63l0.042-10.731l-13.102-0.051L270.554,88.8C272.791,89.09,278.222,89.191,283.669,85.63z"
					/>
			</g>
			<path fill="#E8EBEF" d="M270.554,88.801c0,0-0.273,6.738,4.036,9.22c0,0,8.461-2.309,9.065-9.22l4.854,5.267
				c0,0-3.072,9.013-10.97,12.69l-3.222-7.223l-6.64,6.562c0,0-2.693-7.661-2.245-12.694L270.554,88.801z"/>
			<path opacity="0.1" enable-background="new    " d="M246.416,128.35c0,0,1.712,1.449,5.437,1.771
				c7.517,0.649,19.847,2.001,30.718,0.254c4.56-0.732,7.912-3.036,11.347-5.728c0,0-2.048,11.689-16.337,11.452
				C263.292,135.862,247.312,137.618,246.416,128.35z"/>
		</g>
		<g>
			<path fill="#72382A" d="M257.603,56.896c0,0-11.125,6.31-3.627,16.001C253.977,72.897,251.854,63.319,257.603,56.896z"/>
			<path fill="#5B2A21" d="M287.784,22.808c0,0,8.357-15.603,21.621-3.863c0,0,10.366,7.958,6.42,13.482
				c-3.948,5.522,10.329,11.946,0.032,23.769c-10.294,11.823,11.817,14.735-4.689,29.112c0,0-4.709,4.681-0.566,10.75
				c0,0-16.81-2.355-14.983-16.362c0,0-2.625,5.167-0.33,10.585c0,0-8.999-8.591-5.953-16.449
				c3.045-7.858,2.979-15.304,0.151-18.439C286.657,52.26,279.994,37.877,287.784,22.808z"/>
			<path fill="#E0B155" d="M284.266,22.527c0,0,3.287-4.75,9.213-0.382c5.925,4.368,1.646,7.495,1.646,7.495L284.266,22.527z"/>
			<path fill="#72382A" d="M256.305,57.329l-0.979-3.471c0,0-2.628-0.204-4.251,0.119c0,0-9.247-22.715,11.679-26.731
				c0,0,12.122-10.874,28.42-2.797c0,0,18.903,7.424,9.824,31.208l-12.843,11.189L256.305,57.329z"/>
			<path fill="#89493D" d="M296.535,40.6c-21.592,3.813-35.57-6.72-40.277-11.061c-5.748,3.295-7.247,8.867-7.218,13.858
				C276.156,51.323,296.535,40.6,296.535,40.6z"/>
			<path fill="#FAA284" d="M296.731,55.519l-0.347,0.116l0,0c0,0-8.876,5.479-10.174-16.369c-3.461,3.894-3.516,13.462-3.516,13.462
				c-4.522-0.921-13.828-0.224-13.828-0.224c-1.607-15.575,2.704-20.632,2.704-20.632c-7.892,3.716-5.964,20.581-5.964,20.581
				c-3.425-0.387-6.083,0.716-6.083,0.716l-3.153,0.336c0,0-0.085,10.217,0.299,14.419c0.753,8.22,5.025,14.233,13.087,16.134
				c19.444,4.583,24.925-13.886,24.925-13.886s7.308,0.153,8.156-9.3C303.531,53.143,296.731,55.519,296.731,55.519z"/>
			<path fill="#EF8D72" d="M292.971,68.167c0,0-5.271,13.658-16.167,15.131c-6.636,0.897-12.339-1.935-15.79-4.288
				c2.13,2.428,5.033,4.174,8.742,5.049c19.444,4.583,24.925-13.887,24.925-13.887s5.788,0.076,7.654-6.494
				C297.477,70.42,292.971,68.167,292.971,68.167z"/>
			<g opacity="0.9">
				<path fill="#EA7460" fill-opacity="0" d="M271.059,68.787c-0.023,4.345-3.565,7.848-7.911,7.824
					c-4.345-0.025-7.848-3.566-7.822-7.911c0.024-4.344,3.565-7.848,7.91-7.823C267.58,60.9,271.083,64.442,271.059,68.787z"/>
				<path opacity="0.0909" fill="#EA7460" enable-background="new    " d="M263.231,61.568c3.963,0.021,7.158,3.253,7.137,7.215
					c-0.022,3.963-3.254,7.158-7.216,7.137c-3.964-0.022-7.159-3.253-7.136-7.216C256.038,64.741,259.269,61.545,263.231,61.568z"/>
				<circle opacity="0.1818" fill="#EA7460" enable-background="new    " cx="263.192" cy="68.743" r="6.485"/>
				<circle opacity="0.2727" fill="#EA7460" enable-background="new    " cx="263.192" cy="68.743" r="5.794"/>
				<circle opacity="0.3636" fill="#EA7460" enable-background="new    " cx="263.192" cy="68.744" r="5.103"/>
				<circle opacity="0.4545" fill="#EA7460" enable-background="new    " cx="263.192" cy="68.743" r="4.411"/>
				<circle opacity="0.5455" fill="#EA7460" enable-background="new    " cx="263.192" cy="68.743" r="3.72"/>
				<circle opacity="0.6364" fill="#EA7460" enable-background="new    " cx="263.192" cy="68.743" r="3.029"/>
				<circle opacity="0.7273" fill="#EA7460" enable-background="new    " cx="263.192" cy="68.743" r="2.337"/>
				<circle opacity="0.8182" fill="#EA7460" enable-background="new    " cx="263.192" cy="68.743" r="1.646"/>
				<path opacity="0.9091" fill="#EA7460" enable-background="new    " d="M263.197,67.789c0.527,0.002,0.953,0.433,0.949,0.96
					c-0.002,0.527-0.433,0.953-0.959,0.949c-0.528-0.003-0.953-0.432-0.95-0.96C262.24,68.21,262.67,67.785,263.197,67.789z"/>
				<circle fill="#EA7460" cx="263.192" cy="68.743" r="0.264"/>
			</g>
			<g opacity="0.9">
				<circle fill="#EA7460" fill-opacity="0" cx="283.961" cy="68.425" r="9.085"/>
				<circle opacity="0.0909" fill="#EA7460" enable-background="new    " cx="283.961" cy="68.425" r="8.287"/>
				<circle opacity="0.1818" fill="#EA7460" enable-background="new    " cx="283.961" cy="68.425" r="7.489"/>
				<circle opacity="0.2727" fill="#EA7460" enable-background="new    " cx="283.961" cy="68.425" r="6.691"/>
				<circle opacity="0.3636" fill="#EA7460" enable-background="new    " cx="283.961" cy="68.425" r="5.893"/>
				<circle opacity="0.4545" fill="#EA7460" enable-background="new    " cx="283.961" cy="68.425" r="5.094"/>
				<circle opacity="0.5455" fill="#EA7460" enable-background="new    " cx="283.961" cy="68.425" r="4.296"/>
				<circle opacity="0.6364" fill="#EA7460" enable-background="new    " cx="283.961" cy="68.425" r="3.498"/>
				<circle opacity="0.7273" fill="#EA7460" enable-background="new    " cx="283.961" cy="68.425" r="2.7"/>
				<circle opacity="0.8182" fill="#EA7460" enable-background="new    " cx="283.961" cy="68.425" r="1.901"/>
				<circle opacity="0.9091" fill="#EA7460" enable-background="new    " cx="283.961" cy="68.425" r="1.103"/>
				<circle fill="#EA7460" cx="283.961" cy="68.425" r="0.305"/>
			</g>
			<path fill="#72382A" d="M266.674,53.907c0,0-3.796-1.479-7.959,1.513c0,0-0.043-0.513,0.809-1.385
				c0.854-0.873,3.419-2.191,6.084-1.582C265.607,52.453,267.238,53.375,266.674,53.907z"/>
			<path fill="#72382A" d="M276.985,54.222c0,0,4.356-1.82,9.224,1.436c0,0,0.041-0.585-0.962-1.547
				c-1-0.961-3.991-2.371-7.058-1.581C278.189,52.529,276.321,53.637,276.985,54.222z"/>
			<g>
				<path fill="#D3755F" d="M273.329,70.013c-3.875,1.744-6.069-0.026-6.299-1.882c-0.15-1.208,0.494-2.312,1.643-2.814
					c2.362-1.029,3.91-4.782,3.926-4.821l0,0c0.043,0.847-0.689,4.067-3.663,5.956c-0.643,0.408-1.036,0.827-0.964,1.425
					C268.1,68.917,269.671,70.418,273.329,70.013L273.329,70.013z"/>
			</g>
			<path fill="#754439" d="M282.083,57.477c0,0-2.422-0.085-2.718-1.009c0,0-0.367,1.265,1.081,1.767
				c-0.493,0.55-0.826,1.352-0.871,2.263c-0.083,1.731,0.907,3.184,2.209,3.245c1.302,0.062,2.422-1.29,2.506-3.02
				C284.372,58.992,283.384,57.54,282.083,57.477z"/>
			<path fill="#754439" d="M264.345,57.379c0,0-2.423-0.085-2.718-1.009c0,0-0.368,1.265,1.082,1.766
				c-0.495,0.55-0.827,1.353-0.872,2.264c-0.081,1.73,0.908,3.183,2.209,3.245c1.303,0.063,2.423-1.291,2.508-3.021
				C266.634,58.894,265.646,57.441,264.345,57.379z"/>
			<path fill="#72382A" d="M296.535,54.94c0,0-8.848,2.875-4.774,16.662C291.761,71.602,281.649,59.991,296.535,54.94z"/>
			<g>
				<path fill="#993434" d="M272.073,76.705c-2.515-0.282-4.551-1.909-4.587-1.938c-0.176-0.144-0.219-0.443-0.094-0.669
					c0.125-0.227,0.367-0.294,0.544-0.149c0.237,0.194,5.872,4.677,9.558-1.006c0.14-0.214,0.387-0.256,0.55-0.094
					c0.166,0.162,0.188,0.466,0.048,0.68C276.277,76.327,274.03,76.923,272.073,76.705z"/>
			</g>
		</g>
		<g>
			<path fill="#E8EBEF" d="M302.189,98.218c0,0,11.825,6.124,3.067,27.676c-6.26,15.402-7.826,27.133-14.316,30.33
				c-10.59,5.218-50.675-0.041-50.675-0.041s-4.674-8.24,1.19-13.459l38.925-1.649C280.382,141.075,295.844,101.08,302.189,98.218z"
				/>
			<path fill="#FAA284" d="M241.145,144.816c0,0,1.174,1.58,1.15,4.799c-0.018,2.503-1.056,4.782-1.65,4.953
				c0,0-3.924,0.75-9.112,0.07c-5.188-0.681-4.91-1.445-6.525-1.02c-1.615,0.425-3.731,2.043-5.637,2.486
				c-3.573,0.83-7.505-2.986-7.505-2.986s4.443-4.647,10.142-7.283C227.706,143.2,241.145,144.816,241.145,144.816z"/>
		</g>
	</g>
	<g>
		<g>
			<path fill="#BDBFC1" d="M118.716,158.193h2.261c4.699,0,8.523-4.474,8.523-9.971c0-5.501-3.824-9.975-8.523-9.975h-2.261v2.755
				h2.261c3.183,0,5.77,3.238,5.77,7.22c0,3.979-2.587,7.218-5.77,7.218h-2.261V158.193z"/>
		</g>
		<rect x="103.865" y="137.215" fill="#E8EBEF" width="17.259" height="22.204"/>
	</g>
	<g>
		<g>
			<rect x="59.007" y="159.419" fill="#A0A0A8" width="332.428" height="9.346"/>
			<rect x="291.881" y="159.419" fill="#7A7A7F" width="99.555" height="9.346"/>
		</g>
		<g>
			<polygon fill="#7A7A7F" points="386.498,311.764 391.436,311.764 366.15,168.766 356.562,168.766 			"/>
			<polygon fill="#57575B" points="366.15,168.475 356.562,168.475 360.64,188.375 369.595,188.375 			"/>
		</g>
		<g>
			<polygon fill="#A0A0A8" points="299.479,311.764 304.416,311.764 279.131,168.766 269.539,168.766 			"/>
			<polygon fill="#7A7A7F" points="269.539,168.475 273.619,188.375 282.575,188.375 279.131,168.475 			"/>
		</g>
		<g>
			<polygon fill="#A0A0A8" points="63.943,311.764 59.007,311.764 84.292,168.766 93.881,168.766 			"/>
			<polygon fill="#7A7A7F" points="84.292,168.475 80.847,188.375 89.803,188.375 93.881,168.475 			"/>
		</g>
		<g>
			<polygon fill="#7A7A7F" points="150.964,311.764 146.027,311.764 171.312,168.766 180.901,168.766 			"/>
			<polygon fill="#57575B" points="171.312,168.475 167.867,188.375 176.824,188.375 180.901,168.475 			"/>
		</g>
	</g>
	<g>
		
			<linearGradient id="SVGID_1_" gradientUnits="userSpaceOnUse" x1="-347.4653" y1="-970.4141" x2="-347.4653" y2="-1012.931" gradientTransform="matrix(1 0 0 1 539.0547 1121.332)">
			<stop  offset="0" style="stop-color:#C9C9D1"/>
			<stop  offset="1" style="stop-color:#9F9FA5"/>
		</linearGradient>
		<polygon fill="url(#SVGID_1_)" points="161.904,159.614 154.721,109.635 224.108,109.635 228.457,159.585 		"/>
		<polygon fill="#ACACB7" points="224.108,109.635 227.259,109.635 230.75,156.496 260.149,156.667 260.149,159.574 228.328,159.61 
					"/>
		<path fill="#FFFFFF" d="M193.684,124.093c0.427,3.381-1.215,6.374-3.669,6.685c-2.454,0.311-4.79-2.179-5.219-5.561
			c-0.427-3.381,1.215-6.374,3.67-6.685C190.92,118.222,193.257,120.712,193.684,124.093z"/>
	</g>
</g>
</svg>
